<svg width="50" height="50" viewBox="0 0 50 50" fill="none" xmlns="http://www.w3.org/2000/svg">
<g clip-path="url(#clip0_9_5335)">
<path d="M50.0002 25.1533C50.0002 11.2596 38.8064 -0.00292969 25.0001 -0.00292969C11.1876 0.000195313 -0.00610352 11.2596 -0.00610352 25.1564C-0.00610352 37.7096 9.13765 48.1158 21.0876 50.0033V32.4252H14.7439V25.1564H21.0939V19.6096C21.0939 13.3064 24.8283 9.8252 30.5376 9.8252C33.2752 9.8252 36.1345 10.3158 36.1345 10.3158V16.5033H32.9814C29.8783 16.5033 28.9095 18.4439 28.9095 20.4346V25.1533H35.8408L34.7345 32.4221H28.9064V50.0002C40.8564 48.1127 50.0002 37.7064 50.0002 25.1533Z" fill="white"/>
</g>
<defs>
<clipPath id="clip0_9_5335">
<rect width="50" height="50" fill="white"/>
</clipPath>
</defs>
</svg>
