<svg width="50" height="50" viewBox="0 0 50 50" fill="none" xmlns="http://www.w3.org/2000/svg">
<g clip-path="url(#clip0_9_5331)">
<path d="M25.0001 0C11.1876 0 6.10352e-05 11.1875 6.10352e-05 25C6.10352e-05 36.0625 7.15631 45.4062 17.0938 48.7188C18.3438 48.9375 18.8126 48.1875 18.8126 47.5312C18.8126 46.9375 18.7813 44.9688 18.7813 42.875C12.5001 44.0312 10.8751 41.3438 10.3751 39.9375C10.0938 39.2188 8.87506 37 7.81256 36.4062C6.93756 35.9375 5.68756 34.7812 7.78131 34.75C9.75006 34.7188 11.1563 36.5625 11.6251 37.3125C13.8751 41.0938 17.4688 40.0312 18.9063 39.375C19.1251 37.75 19.7813 36.6562 20.5001 36.0312C14.9376 35.4062 9.12506 33.25 9.12506 23.6875C9.12506 20.9688 10.0938 18.7188 11.6876 16.9688C11.4376 16.3438 10.5626 13.7812 11.9376 10.3438C11.9376 10.3438 14.0313 9.6875 18.8126 12.9062C20.8126 12.3438 22.9376 12.0625 25.0626 12.0625C27.1876 12.0625 29.3126 12.3438 31.3126 12.9062C36.0938 9.65625 38.1876 10.3438 38.1876 10.3438C39.5626 13.7812 38.6876 16.3438 38.4376 16.9688C40.0313 18.7188 41.0001 20.9375 41.0001 23.6875C41.0001 33.2812 35.1563 35.4062 29.5938 36.0312C30.5001 36.8125 31.2813 38.3125 31.2813 40.6562C31.2813 44 31.2501 46.6875 31.2501 47.5312C31.2501 48.1875 31.7188 48.9688 32.9688 48.7188C37.932 47.0437 42.2449 43.8542 45.3001 39.5992C48.3554 35.3443 49.9992 30.2382 50.0001 25C50.0001 11.1875 38.8126 0 25.0001 0Z" fill="white"/>
</g>
<defs>
<clipPath id="clip0_9_5331">
<rect width="50" height="50" fill="white"/>
</clipPath>
</defs>
</svg>
