<svg width="51" height="50" viewBox="0 0 51 50" fill="none" xmlns="http://www.w3.org/2000/svg">
<g clip-path="url(#clip0_9_5329)">
<path d="M25.0107 0C18.2263 0 17.3732 0.03125 14.7076 0.15C12.0419 0.275 10.2263 0.69375 8.63568 1.3125C6.96722 1.94006 5.45597 2.92446 4.20756 4.19688C2.93592 5.44593 1.95164 6.957 1.32318 8.625C0.704431 10.2125 0.282556 12.0312 0.160681 14.6875C0.0419312 17.3594 0.0106812 18.2094 0.0106812 25.0031C0.0106812 31.7906 0.0419312 32.6406 0.160681 35.3063C0.285681 37.9688 0.704431 39.7844 1.32318 41.375C1.96381 43.0187 2.81693 44.4125 4.20756 45.8031C5.59506 47.1937 6.98881 48.05 8.63256 48.6875C10.2263 49.3063 12.0388 49.7281 14.7013 49.85C17.3701 49.9688 18.2201 50 25.0107 50C31.8013 50 32.6482 49.9688 35.3169 49.85C37.9763 49.725 39.7982 49.3063 41.3888 48.6875C43.0562 48.0596 44.5664 47.0752 45.8138 45.8031C47.2044 44.4125 48.0576 43.0187 48.6982 41.375C49.3138 39.7844 49.7357 37.9688 49.8607 35.3063C49.9794 32.6406 50.0107 31.7906 50.0107 25C50.0107 18.2094 49.9794 17.3594 49.8607 14.6906C49.7357 12.0313 49.3138 10.2125 48.6982 8.625C48.0698 6.95695 47.0855 5.44586 45.8138 4.19688C44.5658 2.92399 43.0544 1.93952 41.3857 1.3125C39.7919 0.69375 37.9732 0.271875 35.3138 0.15C32.6451 0.03125 31.7982 0 25.0044 0H25.0138H25.0107ZM22.7701 4.50625H25.0138C31.6888 4.50625 32.4794 4.52813 35.1138 4.65C37.5513 4.75938 38.8763 5.16875 39.7576 5.50938C40.9232 5.9625 41.7576 6.50625 42.6326 7.38125C43.5076 8.25625 44.0482 9.0875 44.5013 10.2563C44.8451 11.1344 45.2513 12.4594 45.3607 14.8969C45.4826 17.5312 45.5076 18.3219 45.5076 24.9937C45.5076 31.6656 45.4826 32.4594 45.3607 35.0938C45.2513 37.5312 44.8419 38.8531 44.5013 39.7344C44.1005 40.8199 43.4608 41.8014 42.6294 42.6063C41.7544 43.4813 40.9232 44.0219 39.7544 44.475C38.8794 44.8188 37.5544 45.225 35.1138 45.3375C32.4794 45.4563 31.6888 45.4844 25.0138 45.4844C18.3388 45.4844 17.5451 45.4563 14.9107 45.3375C12.4732 45.225 11.1513 44.8188 10.2701 44.475C9.18412 44.0748 8.2017 43.4362 7.39506 42.6063C6.56303 41.8001 5.92232 40.8177 5.52006 39.7313C5.17943 38.8531 4.77006 37.5281 4.66068 35.0906C4.54193 32.4562 4.51693 31.6656 4.51693 24.9875C4.51693 18.3125 4.54193 17.525 4.66068 14.8906C4.77318 12.4531 5.17943 11.1281 5.52318 10.2469C5.97631 9.08125 6.52006 8.24687 7.39506 7.37187C8.27006 6.49687 9.10131 5.95625 10.2701 5.50313C11.1513 5.15938 12.4732 4.75313 14.9107 4.64062C17.2169 4.53438 18.1107 4.50313 22.7701 4.5V4.50625ZM38.3576 8.65625C37.9636 8.65625 37.5735 8.73385 37.2095 8.88461C36.8455 9.03538 36.5148 9.25635 36.2362 9.53493C35.9577 9.81351 35.7367 10.1442 35.5859 10.5082C35.4352 10.8722 35.3576 11.2623 35.3576 11.6562C35.3576 12.0502 35.4352 12.4403 35.5859 12.8043C35.7367 13.1683 35.9577 13.499 36.2362 13.7776C36.5148 14.0561 36.8455 14.2771 37.2095 14.4279C37.5735 14.5787 37.9636 14.6562 38.3576 14.6562C39.1532 14.6562 39.9163 14.3402 40.4789 13.7776C41.0415 13.215 41.3576 12.4519 41.3576 11.6562C41.3576 10.8606 41.0415 10.0975 40.4789 9.53493C39.9163 8.97232 39.1532 8.65625 38.3576 8.65625ZM25.0138 12.1625C23.3109 12.1359 21.6197 12.4484 20.0387 13.0817C18.4578 13.715 17.0185 14.6565 15.8049 15.8513C14.5913 17.0462 13.6274 18.4705 12.9696 20.0414C12.3117 21.6124 11.9729 23.2985 11.9729 25.0016C11.9729 26.7047 12.3117 28.3908 12.9696 29.9617C13.6274 31.5326 14.5913 32.957 15.8049 34.1518C17.0185 35.3467 18.4578 36.2881 20.0387 36.9214C21.6197 37.5547 23.3109 37.8672 25.0138 37.8406C28.3842 37.788 31.5988 36.4122 33.9637 34.0102C36.3286 31.6081 37.6541 28.3724 37.6541 25.0016C37.6541 21.6307 36.3286 18.395 33.9637 15.993C31.5988 13.5909 28.3842 12.2151 25.0138 12.1625ZM25.0138 16.6656C27.2242 16.6656 29.3441 17.5437 30.9071 19.1067C32.4701 20.6697 33.3482 22.7896 33.3482 25C33.3482 27.2104 32.4701 29.3303 30.9071 30.8933C29.3441 32.4563 27.2242 33.3344 25.0138 33.3344C22.8034 33.3344 20.6835 32.4563 19.1205 30.8933C17.5575 29.3303 16.6794 27.2104 16.6794 25C16.6794 22.7896 17.5575 20.6697 19.1205 19.1067C20.6835 17.5437 22.8034 16.6656 25.0138 16.6656Z" fill="white"/>
</g>
<defs>
<clipPath id="clip0_9_5329">
<rect width="50" height="50" fill="white" transform="translate(0.0106812)"/>
</clipPath>
</defs>
</svg>
