<svg width="51" height="50" viewBox="0 0 51 50" fill="none" xmlns="http://www.w3.org/2000/svg">
<g clip-path="url(#clip0_9_5333)">
<path d="M16.6111 46.8752C35.4798 46.8752 45.8017 31.2408 45.8017 17.7065C45.8017 17.269 45.8017 16.8252 45.783 16.3877C47.7925 14.933 49.5269 13.1319 50.9048 11.069C49.0277 11.8966 47.0385 12.4421 45.0017 12.6877C47.1471 11.4053 48.754 9.38761 49.5236 7.00959C47.5079 8.20373 45.3018 9.04201 43.0017 9.48771C41.4554 7.84091 39.4092 6.74996 37.1801 6.38383C34.951 6.0177 32.6633 6.39684 30.6715 7.46252C28.6797 8.52819 27.0949 10.2209 26.1625 12.2785C25.2301 14.3361 25.0023 16.6438 25.5142 18.844C21.4353 18.6394 17.4449 17.5798 13.8019 15.7338C10.1588 13.8878 6.94448 11.2966 4.36735 8.12834C3.05903 10.388 2.65976 13.0608 3.25062 15.6042C3.84147 18.1475 5.37814 20.3706 7.5486 21.8221C5.92216 21.7668 4.33147 21.3301 2.90485 20.5471V20.6877C2.90765 23.0548 3.72768 25.3484 5.22633 27.1807C6.72497 29.013 8.81031 30.2717 11.1298 30.744C10.2494 30.9865 9.33994 31.1074 8.42672 31.1033C7.78292 31.1053 7.14041 31.0456 6.50797 30.9252C7.16355 32.9629 8.44007 34.7445 10.1587 36.0205C11.8774 37.2964 13.9521 38.0029 16.0923 38.0408C12.4566 40.8965 7.96548 42.4452 3.34235 42.4377C2.52772 42.4412 1.71367 42.3942 0.904846 42.2971C5.59708 45.2885 11.0464 46.8769 16.6111 46.8752Z" fill="white"/>
</g>
<defs>
<clipPath id="clip0_9_5333">
<rect width="50" height="50" fill="white" transform="translate(0.904846)"/>
</clipPath>
</defs>
</svg>
