<svg width="530" height="601" viewBox="0 0 530 601" fill="none" xmlns="http://www.w3.org/2000/svg">
<path d="M457.273 36.8617H51.6011C44.5401 36.8617 38.816 43.535 38.816 51.767V385.626C38.816 393.858 44.5401 400.532 51.6011 400.532H457.273C464.334 400.532 470.058 393.858 470.058 385.626V51.767C470.058 43.535 464.334 36.8617 457.273 36.8617Z" fill="#08AEC5" stroke="#2E353A" stroke-width="1.50103" stroke-miterlimit="10"/>
<path d="M461.979 71.794H46.882V378.234H461.979V71.794Z" fill="white" stroke="#2E353A" stroke-width="1.50103" stroke-miterlimit="10"/>
<path d="M68.5955 313.387H192.093" stroke="#2E353A" stroke-linecap="round" stroke-linejoin="round"/>
<path d="M89.0413 327.686H192.093" stroke="#2E353A" stroke-linecap="round" stroke-linejoin="round"/>
<path d="M68.5955 327.686H78.4" stroke="#2E353A" stroke-linecap="round" stroke-linejoin="round"/>
<path d="M68.5955 341.979H192.093" stroke="#2E353A" stroke-linecap="round" stroke-linejoin="round"/>
<path d="M183.086 356.291H192.094" stroke="#2E353A" stroke-linecap="round" stroke-linejoin="round"/>
<path d="M68.5955 356.291H172.458" stroke="#2E353A" stroke-linecap="round" stroke-linejoin="round"/>
<path d="M355.646 96.8486H72.0337C67.9256 96.8486 64.5953 100.731 64.5953 105.52V200.088C64.5953 204.877 67.9256 208.76 72.0337 208.76H355.646C359.754 208.76 363.084 204.877 363.084 200.088V105.52C363.084 100.731 359.754 96.8486 355.646 96.8486Z" fill="#2E353A"/>
<path d="M355.659 97.6111C356.549 97.6111 357.431 97.8158 358.253 98.2135C359.076 98.6112 359.823 99.1941 360.452 99.9288C361.081 100.663 361.579 101.536 361.919 102.495C362.258 103.455 362.432 104.483 362.431 105.521V200.089C362.432 201.127 362.258 202.155 361.919 203.114C361.579 204.074 361.081 204.946 360.452 205.681C359.823 206.416 359.076 206.998 358.253 207.396C357.431 207.794 356.549 207.999 355.659 207.998H71.9814C70.182 207.998 68.4563 207.165 67.1839 205.682C65.9115 204.198 65.1967 202.186 65.1967 200.089V105.521C65.1967 103.423 65.9115 101.411 67.1839 99.9278C68.4563 98.4445 70.182 97.6111 71.9814 97.6111H355.659ZM355.659 96.087H71.9814C69.8363 96.0911 67.7801 97.0863 66.2633 98.8546C64.7465 100.623 63.8929 103.02 63.8894 105.521V200.089C63.8929 202.589 64.7465 204.987 66.2633 206.755C67.7801 208.523 69.8363 209.519 71.9814 209.523H355.659C357.803 209.519 359.858 208.523 361.372 206.754C362.887 204.985 363.738 202.588 363.738 200.089V105.521C363.738 103.022 362.887 100.624 361.372 98.8556C359.858 97.0868 357.803 96.0911 355.659 96.087Z" fill="#2E353A"/>
<path d="M302.78 97.6114C301.306 99.4061 299.535 100.834 297.575 101.81C295.615 102.786 293.505 103.289 291.374 103.289C289.243 103.289 287.133 102.786 285.173 101.81C283.213 100.834 281.442 99.4061 279.968 97.6114H273.144L273.327 97.9771L270.856 100.903C270.398 101.443 270.141 102.171 270.141 102.93C270.141 103.689 270.398 104.418 270.856 104.957L274.112 108.752C274.339 109.02 274.61 109.233 274.908 109.379C275.207 109.524 275.527 109.599 275.85 109.599C276.174 109.599 276.494 109.524 276.792 109.379C277.091 109.233 277.361 109.02 277.589 108.752L280.099 105.826C282.107 107.308 284.318 108.38 286.635 108.996V113.142C286.635 113.901 286.894 114.63 287.355 115.168C287.816 115.705 288.441 116.007 289.093 116.007H293.694C294.346 116.007 294.971 115.705 295.432 115.168C295.893 114.63 296.152 113.901 296.152 113.142V108.996C298.47 108.38 300.68 107.308 302.688 105.826L305.198 108.752C305.426 109.02 305.697 109.233 305.995 109.379C306.293 109.524 306.614 109.599 306.937 109.599C307.261 109.599 307.581 109.524 307.879 109.379C308.178 109.233 308.448 109.02 308.676 108.752L311.931 104.957C312.389 104.418 312.646 103.689 312.646 102.93C312.646 102.171 312.389 101.443 311.931 100.903L309.421 97.9771L309.604 97.6114H302.78Z" fill="#08AEC5"/>
<path d="M186.355 206.582H182.799C182.27 203.88 181.351 201.303 180.08 198.962L182.59 196.035C182.82 195.77 183.002 195.455 183.127 195.107C183.252 194.759 183.316 194.385 183.316 194.008C183.316 193.631 183.252 193.258 183.127 192.91C183.002 192.562 182.82 192.246 182.59 191.981L179.348 188.156C179.119 187.887 178.847 187.674 178.548 187.529C178.248 187.383 177.927 187.308 177.602 187.308C177.278 187.308 176.957 187.383 176.657 187.529C176.357 187.674 176.086 187.887 175.857 188.156L173.347 191.082C171.338 189.602 169.128 188.53 166.811 187.912V183.767C166.807 183.005 166.546 182.277 166.083 181.74C165.62 181.203 164.993 180.901 164.34 180.901H159.739C159.085 180.901 158.459 181.203 157.996 181.74C157.533 182.277 157.271 183.005 157.268 183.767V187.912C154.951 188.53 152.741 189.602 150.731 191.082L148.221 188.156C147.994 187.888 147.723 187.675 147.425 187.53C147.126 187.384 146.806 187.309 146.483 187.309C146.159 187.309 145.839 187.384 145.541 187.53C145.242 187.675 144.971 187.888 144.744 188.156L141.437 191.951C141.207 192.216 141.024 192.532 140.899 192.88C140.775 193.227 140.711 193.601 140.711 193.978C140.711 194.355 140.775 194.728 140.899 195.076C141.024 195.424 141.207 195.74 141.437 196.005L143.947 198.931C142.675 201.273 141.756 203.85 141.228 206.551H137.672C137.245 206.55 136.825 206.68 136.456 206.929C136.086 207.178 135.779 207.537 135.567 207.969H146.535C147.335 203.887 149.3 200.243 152.109 197.633C154.917 195.023 158.402 193.601 161.994 193.601C165.585 193.601 169.07 195.023 171.878 197.633C174.687 200.243 176.652 203.887 177.452 207.969H188.498C188.28 207.536 187.965 207.179 187.588 206.935C187.211 206.691 186.785 206.569 186.355 206.582Z" fill="#08AEC5"/>
<path d="M68.8963 173.646H73.4586C74.1139 173.646 74.7424 173.343 75.2057 172.803C75.6691 172.262 75.9294 171.53 75.9294 170.766V166.635C78.2464 166.018 80.4566 164.946 82.4657 163.465L84.9757 166.392C85.2031 166.66 85.4738 166.873 85.7723 167.018C86.0707 167.163 86.3909 167.238 86.7144 167.238C87.0378 167.238 87.358 167.163 87.6565 167.018C87.9549 166.873 88.2257 166.66 88.453 166.392L91.7604 162.566C91.9905 162.301 92.1731 161.986 92.2977 161.638C92.4224 161.29 92.4866 160.916 92.4866 160.539C92.4866 160.162 92.4224 159.789 92.2977 159.441C92.1731 159.093 91.9905 158.777 91.7604 158.512L89.2505 155.586C90.5217 153.244 91.4412 150.667 91.9696 147.966H95.5254C96.1772 147.966 96.8023 147.664 97.2632 147.126C97.7241 146.589 97.983 145.86 97.983 145.1V139.705C97.983 138.945 97.7241 138.217 97.2632 137.679C96.8023 137.142 96.1772 136.84 95.5254 136.84H91.9696C91.4362 134.14 90.517 131.564 89.2505 129.22L91.7604 126.293C91.9905 126.028 92.1731 125.713 92.2977 125.365C92.4224 125.017 92.4866 124.643 92.4866 124.266C92.4866 123.889 92.4224 123.516 92.2977 123.168C92.1731 122.82 91.9905 122.504 91.7604 122.239L88.5053 118.444C88.0427 117.91 87.4178 117.611 86.7667 117.611C86.1155 117.611 85.4906 117.91 85.028 118.444L82.518 121.416C80.5055 119.947 78.2962 118.881 75.9817 118.262V114.116C75.9853 113.73 75.9222 113.347 75.7964 112.99C75.6705 112.633 75.4844 112.309 75.249 112.038C75.0137 111.766 74.7339 111.552 74.4263 111.409C74.1188 111.266 73.7897 111.197 73.4586 111.205H68.8571C68.2052 111.205 67.5801 111.507 67.1192 112.044C66.6583 112.582 66.3994 113.31 66.3994 114.07V118.216C65.9941 118.323 65.602 118.46 65.2098 118.597V125.288C66.5951 124.619 68.0576 124.193 69.5499 124.023C71.9546 123.712 74.3883 124.047 76.6651 125.001C78.9419 125.955 81.0014 127.503 82.6863 129.527C84.3712 131.551 85.6369 133.998 86.3865 136.679C87.1361 139.361 87.3499 142.207 87.0115 145C86.6731 147.793 85.7915 150.459 84.434 152.794C83.0765 155.128 81.2791 157.07 79.1792 158.471C77.0793 159.872 74.7325 160.695 72.3181 160.876C69.9038 161.058 67.4858 160.593 65.249 159.518V166.224C65.6412 166.361 66.0334 166.498 66.4386 166.605V170.735C66.4352 171.115 66.4961 171.491 66.6179 171.843C66.7397 172.195 66.92 172.516 67.1484 172.786C67.3768 173.057 67.6487 173.272 67.9487 173.42C68.2487 173.567 68.5707 173.644 68.8963 173.646Z" fill="#08AEC5"/>
<path d="M383.099 46.3262H176.864V61.0486H383.099V46.3262Z" fill="white" stroke="#2E353A" stroke-width="1.50103" stroke-miterlimit="10"/>
<path d="M56.8695 43.9796L50.9214 50.655L57.0917 58.3667" stroke="#2E353A" stroke-width="1.50103" stroke-linecap="round" stroke-linejoin="round"/>
<path d="M50.9214 50.6554H64.1379" stroke="#2E353A" stroke-width="1.50103" stroke-linecap="round" stroke-linejoin="round"/>
<path d="M90.5839 43.9796L96.5451 50.655L90.3617 58.3667" stroke="#2E353A" stroke-width="1.50103" stroke-linecap="round" stroke-linejoin="round"/>
<path d="M96.5319 50.6554H83.3154" stroke="#2E353A" stroke-width="1.50103" stroke-linecap="round" stroke-linejoin="round"/>
<path d="M124.952 49.7861C124.571 48.2368 123.779 46.8682 122.689 45.8769C121.599 44.8856 120.268 44.3227 118.886 44.269C117.933 44.2682 116.993 44.5347 116.147 45.0459C115.3 45.5571 114.571 46.298 114.022 47.2063C113.472 48.1145 113.118 49.1635 112.989 50.2648C112.86 51.366 112.96 52.4874 113.28 53.5342C113.601 54.581 114.132 55.5227 114.83 56.2799C115.528 57.0371 116.372 57.5876 117.291 57.885C118.209 58.1824 119.176 58.218 120.109 57.9888C121.042 57.7597 121.914 57.2724 122.651 56.5681" stroke="#2E353A" stroke-width="1.50103" stroke-linecap="round" stroke-linejoin="round"/>
<path d="M120.939 50.5332H125.567V44.1169" stroke="#2E353A" stroke-width="1.50103" stroke-linecap="round" stroke-linejoin="round"/>
<path d="M156.47 48.2615L150.98 43.0798L145.751 48.2615V59.5395H156.47V48.2615Z" stroke="#2E353A" stroke-width="1.50103" stroke-linecap="round" stroke-linejoin="round"/>
<path d="M153.071 51.31H148.888V59.1285H153.071V51.31Z" fill="#2E353A"/>
<path d="M145.751 48.262L142.613 51.5646" stroke="#2E353A" stroke-width="1.50103" stroke-linecap="round" stroke-linejoin="round"/>
<path d="M156.47 48.262L159.425 51.3026" stroke="#2E353A" stroke-width="1.50103" stroke-linecap="round" stroke-linejoin="round"/>
<path d="M440.122 49.0245H456.659" stroke="#2E353A" stroke-width="1.50103" stroke-linecap="round" stroke-linejoin="round"/>
<path d="M440.122 53.3678H456.659" stroke="#2E353A" stroke-width="1.50103" stroke-linecap="round" stroke-linejoin="round"/>
<path d="M440.122 57.7271H456.659" stroke="#2E353A" stroke-width="1.50103" stroke-linecap="round" stroke-linejoin="round"/>
<path d="M440.122 62.0705H456.659" stroke="#2E353A" stroke-width="1.50103" stroke-linecap="round" stroke-linejoin="round"/>
<g style="mix-blend-mode:multiply">
<path d="M470.058 136.368H200.761C199.454 136.368 198.161 136.668 196.954 137.251C195.747 137.834 194.65 138.688 193.726 139.765C192.802 140.842 192.07 142.12 191.57 143.528C191.07 144.935 190.812 146.443 190.812 147.966V235.158C190.812 236.681 191.07 238.189 191.57 239.596C192.07 241.003 192.802 242.282 193.726 243.359C194.65 244.436 195.747 245.29 196.954 245.873C198.161 246.456 199.454 246.756 200.761 246.756H470.058V136.368Z" fill="#08AEC5"/>
</g>
<path d="M453.456 355.88C452.998 336.067 454.319 302.096 439.363 288.135C426.291 275.943 416.016 292.509 412.329 305.921C403.387 338.49 407.597 374.428 407.61 408.033C407.61 408.536 407.61 409.055 407.61 409.558C406.904 434.278 404.355 461.056 406.669 485.761C406.669 485.761 404.394 461.04 387.726 471.633C371.059 482.225 396.067 537.884 396.067 537.884C396.067 537.884 376.366 521.119 367.307 535.232C358.247 549.345 378.667 565.256 378.667 565.256C378.667 565.256 359.725 559.083 359.725 565.256C359.725 571.428 365.79 576.747 383.255 579.384H477.196C477.196 579.384 492.347 569.676 489.314 559.083C486.281 548.491 470.372 554.664 470.372 554.664C470.372 554.664 494.622 520.22 493.105 505.193C491.589 490.165 460.41 507.783 460.41 507.783C460.41 507.783 484.647 436.244 480.111 404.452C476.529 379.412 459.848 396.542 450.776 406.174C452.923 389.532 453.819 372.704 453.456 355.88Z" fill="#08AEC5"/>
<path opacity="0.5" d="M453.456 355.88C452.998 336.067 454.319 302.096 439.363 288.135C426.291 275.943 416.016 292.509 412.329 305.921C403.387 338.49 407.597 374.428 407.61 408.033C407.61 408.536 407.61 409.055 407.61 409.558C406.904 434.278 404.355 461.056 406.669 485.761C406.669 485.761 404.394 461.04 387.726 471.633C371.059 482.225 396.067 537.884 396.067 537.884C396.067 537.884 376.366 521.119 367.307 535.232C358.247 549.345 378.667 565.256 378.667 565.256C378.667 565.256 359.725 559.083 359.725 565.256C359.725 571.428 365.79 576.747 383.255 579.384H477.196C477.196 579.384 492.347 569.676 489.314 559.083C486.281 548.491 470.372 554.664 470.372 554.664C470.372 554.664 494.622 520.22 493.105 505.193C491.589 490.165 460.41 507.783 460.41 507.783C460.41 507.783 484.647 436.244 480.111 404.452C476.529 379.412 459.848 396.542 450.776 406.174C452.923 389.532 453.819 372.704 453.456 355.88Z" fill="white"/>
<path d="M423.323 578.437L430.147 335.563" stroke="white" stroke-width="1.72695" stroke-linecap="round" stroke-linejoin="round"/>
<path d="M427.114 476.872L462.724 438.008" stroke="white" stroke-width="1.72695" stroke-linecap="round" stroke-linejoin="round"/>
<path d="M443.782 459.212L451.351 434.476" stroke="white" stroke-width="1.72695" stroke-linecap="round" stroke-linejoin="round"/>
<path d="M397.57 506.896L424.84 541.34" stroke="white" stroke-width="1.72695" stroke-linecap="round" stroke-linejoin="round"/>
<path d="M470.293 526.329L424.839 553.716" stroke="white" stroke-width="1.72695" stroke-linecap="round" stroke-linejoin="round"/>
<path d="M446.057 542.216L462.724 541.339" stroke="white" stroke-width="1.72695" stroke-linecap="round" stroke-linejoin="round"/>
<path d="M278.282 600.17C404.781 600.17 507.328 594.049 507.328 586.499C507.328 578.949 404.781 572.828 278.282 572.828C151.783 572.828 49.235 578.949 49.235 586.499C49.235 594.049 151.783 600.17 278.282 600.17Z" fill="#08AEC5"/>
<path opacity="0.3" d="M278.282 600.17C404.781 600.17 507.328 594.049 507.328 586.499C507.328 578.949 404.781 572.828 278.282 572.828C151.783 572.828 49.235 578.949 49.235 586.499C49.235 594.049 151.783 600.17 278.282 600.17Z" fill="white"/>
<path d="M285.393 577.111C284.311 577.126 283.249 577.445 282.295 578.04C280.661 579.046 273.602 581.302 269.052 583.176C261.954 586.118 256.411 584.533 256.986 586.697C257.561 588.861 268.634 593.205 275.04 593.312C281.445 593.418 284.53 591.559 287.589 591.635C290.648 591.711 288.4 593.433 293.498 594.104C298.597 594.775 300.257 594.79 302.035 591.544C303.813 588.297 304.819 587.459 304.257 583.344V583.207C303.973 581.437 303.161 579.842 301.965 578.704C300.768 577.566 299.265 576.958 297.721 576.989L285.393 577.111Z" fill="#2E353A"/>
<path d="M325.069 573.149C324.12 573.12 323.185 573.429 322.389 574.033C320.99 575.054 314.911 577.203 311.003 579.047C304.898 581.942 300.035 580.007 300.545 582.354C301.054 584.701 307.643 587.902 313.225 588.267C316.244 588.486 319.275 588.354 322.271 587.871C328.311 587.475 324.468 589.974 326.638 590.995C328.154 591.555 329.74 591.818 331.331 591.773C337.697 592.169 338.468 592.763 339.933 589.334C341.397 585.905 342.233 585.052 341.619 580.601V580.464C341.057 576.517 338.534 573.606 335.762 573.514L325.069 573.149Z" fill="#2E353A"/>
<path d="M268.085 341.034C268.085 341.034 269.183 385.842 269.183 400.884C269.183 415.927 272.477 483.915 276.87 508.559C281.262 533.203 283.733 568.409 283.733 572.249C283.733 576.09 282.635 577.05 284.831 579.611C287.027 582.171 295.289 586.972 298.296 585.372C301.303 583.771 302.963 577.751 302.963 577.751C302.963 577.751 302.963 544.466 303.786 522.702C304.61 500.939 303.237 472.408 303.237 472.408C303.237 472.408 313.944 530.033 316.964 541.555C319.983 553.077 322.454 573.972 323.003 578.132C323.552 582.293 325.958 582.43 329.03 582.43C332.716 582.43 337.279 581.881 338.926 578.681C340.573 575.48 337.004 541.875 337.004 528.387C337.004 514.899 327.945 431.594 328.768 411.034C329.592 390.475 334.808 355.025 333.161 344.464C332.181 338.251 331.63 331.957 331.514 325.641C331.514 325.641 274.948 318.021 268.085 341.034Z" fill="#2E353A" stroke="#2E353A" stroke-miterlimit="10"/>
<path d="M271.392 346.064C272.307 350.041 273.497 353.924 274.948 357.678C275.999 360.27 277.729 362.405 279.89 363.774" stroke="white" stroke-miterlimit="10"/>
<path d="M289.158 568.607C289.433 573.127 289.359 577.666 288.936 582.171" stroke="white" stroke-miterlimit="10"/>
<path d="M280.988 392.532C281.759 427.372 283.223 486.642 284.557 500.877C286.047 516.651 287.367 540.792 288.269 555.438" stroke="white" stroke-miterlimit="10"/>
<path d="M279.798 346.551C279.524 347.512 280.439 366.638 280.439 366.638C280.439 366.638 280.57 373.1 280.792 383.22" stroke="white" stroke-miterlimit="10"/>
<path d="M203.846 220.267C203.846 220.267 203.571 212.647 204.944 214.506C206.316 216.366 206.591 219.947 207.14 223.468C207.14 223.468 207.964 216.747 208.787 218.667C209.683 221.063 209.969 223.708 209.611 226.287C209.438 229.944 210.101 233.589 211.532 236.849C212.631 238.769 205.767 233.389 203.846 220.267Z" fill="white" stroke="#2E353A" stroke-miterlimit="10"/>
<path d="M410.473 230.296C410.473 230.296 414.395 224.108 412.329 224.809C410.264 225.51 408.407 228.253 406.211 230.814C406.211 230.814 408.747 224.718 407.139 225.754C405.233 227.17 403.717 229.197 402.773 231.591C401.167 234.736 398.87 237.325 396.119 239.089C394.289 239.973 402.59 239.927 410.473 230.296Z" fill="white" stroke="#2E353A" stroke-linecap="round" stroke-linejoin="round"/>
<path d="M414.656 128.077V124.221C414.658 123.95 414.613 123.681 414.525 123.429C414.437 123.178 414.308 122.949 414.144 122.757C413.98 122.564 413.784 122.411 413.57 122.307C413.355 122.202 413.124 122.149 412.891 122.149H410.277C409.896 120.201 409.237 118.341 408.329 116.647L410.133 114.544C410.465 114.155 410.651 113.629 410.651 113.081C410.651 112.532 410.465 112.006 410.133 111.617L407.793 108.889C407.46 108.502 407.008 108.285 406.538 108.285C406.067 108.285 405.616 108.502 405.283 108.889L403.479 110.993C402.024 109.927 400.423 109.159 398.746 108.722V105.674C398.748 105.402 398.704 105.133 398.616 104.882C398.528 104.63 398.398 104.402 398.234 104.209C398.07 104.016 397.875 103.863 397.66 103.759C397.445 103.655 397.215 103.601 396.982 103.601H393.74C393.27 103.605 392.822 103.825 392.491 104.213C392.16 104.602 391.975 105.126 391.975 105.674V108.722C390.301 109.156 388.705 109.924 387.256 110.993L385.438 108.889C385.275 108.698 385.08 108.546 384.866 108.443C384.651 108.339 384.422 108.286 384.19 108.286C383.958 108.286 383.728 108.339 383.514 108.443C383.3 108.546 383.105 108.698 382.942 108.889L380.667 111.617C380.335 112.006 380.148 112.532 380.148 113.081C380.148 113.629 380.335 114.155 380.667 114.544L382.471 116.647C381.558 118.34 380.895 120.2 380.51 122.149H377.961C377.489 122.149 377.037 122.367 376.704 122.756C376.37 123.145 376.183 123.672 376.183 124.221V128.077C376.183 128.349 376.229 128.619 376.318 128.87C376.408 129.122 376.539 129.35 376.704 129.543C376.869 129.735 377.065 129.888 377.28 129.992C377.496 130.096 377.727 130.15 377.961 130.15H380.51C380.895 132.099 381.558 133.959 382.471 135.652L380.667 137.755C380.335 138.144 380.148 138.67 380.148 139.218C380.148 139.767 380.335 140.293 380.667 140.681L383.007 143.409C383.171 143.601 383.365 143.752 383.58 143.856C383.794 143.959 384.023 144.013 384.255 144.013C384.487 144.013 384.717 143.959 384.931 143.856C385.145 143.752 385.34 143.601 385.504 143.409L387.321 141.306C388.772 142.373 390.368 143.146 392.04 143.592V146.564C392.04 147.111 392.226 147.636 392.556 148.024C392.887 148.413 393.336 148.633 393.805 148.637H397.125C397.358 148.637 397.589 148.583 397.804 148.479C398.019 148.374 398.214 148.222 398.378 148.029C398.542 147.836 398.672 147.608 398.76 147.356C398.848 147.105 398.892 146.836 398.89 146.564V143.592C400.566 143.143 402.165 142.37 403.623 141.306L405.427 143.409C405.76 143.797 406.211 144.014 406.682 144.014C407.152 144.014 407.603 143.797 407.937 143.409L410.277 140.681C410.609 140.293 410.795 139.767 410.795 139.218C410.795 138.67 410.609 138.144 410.277 137.755L408.473 135.652C409.381 133.958 410.04 132.098 410.42 130.15H413.035C413.48 130.108 413.895 129.87 414.195 129.486C414.496 129.101 414.661 128.598 414.656 128.077ZM396.145 134.936C394.587 135.127 393.016 134.752 391.648 133.86C390.28 132.968 389.183 131.605 388.508 129.956C387.832 128.308 387.611 126.456 387.875 124.655C388.139 122.855 388.875 121.193 389.982 119.9C391.089 118.607 392.513 117.746 394.057 117.435C395.601 117.123 397.19 117.377 398.605 118.162C400.02 118.946 401.192 120.223 401.959 121.815C402.727 123.408 403.052 125.239 402.891 127.056C402.715 129.068 401.951 130.949 400.728 132.384C399.505 133.818 397.896 134.719 396.171 134.936H396.145Z" fill="white" stroke="#2E353A" stroke-linecap="round" stroke-linejoin="round"/>
<path d="M255.574 234.899V231.027C255.574 230.756 255.528 230.487 255.439 230.237C255.349 229.986 255.218 229.758 255.053 229.567C254.887 229.376 254.691 229.225 254.476 229.122C254.26 229.02 254.029 228.968 253.796 228.97H251.182C250.82 227.044 250.179 225.204 249.286 223.529L251.09 221.411C251.254 221.22 251.384 220.993 251.473 220.743C251.562 220.493 251.608 220.225 251.608 219.955C251.608 219.685 251.562 219.417 251.473 219.167C251.384 218.918 251.254 218.691 251.09 218.5L248.75 215.756C248.417 215.369 247.966 215.152 247.495 215.152C247.025 215.152 246.574 215.369 246.24 215.756L244.436 217.875C242.984 216.811 241.389 216.038 239.717 215.589V212.541C239.714 211.994 239.525 211.47 239.192 211.085C238.859 210.699 238.408 210.483 237.939 210.483H234.632C234.162 210.483 233.712 210.699 233.379 211.085C233.046 211.47 232.857 211.994 232.854 212.541V215.589C231.182 216.038 229.587 216.811 228.135 217.875L226.331 215.756C225.997 215.369 225.546 215.152 225.076 215.152C224.605 215.152 224.154 215.369 223.821 215.756L221.481 218.5C221.317 218.691 221.186 218.918 221.098 219.167C221.009 219.417 220.963 219.685 220.963 219.955C220.963 220.225 221.009 220.493 221.098 220.743C221.186 220.993 221.317 221.22 221.481 221.411L223.285 223.529C222.37 225.221 221.707 227.081 221.324 229.031H218.709C218.476 229.029 218.245 229.081 218.03 229.183C217.814 229.286 217.618 229.437 217.453 229.628C217.288 229.819 217.156 230.047 217.067 230.297C216.977 230.548 216.931 230.817 216.931 231.088V234.959C216.931 235.231 216.977 235.5 217.067 235.75C217.156 236.001 217.288 236.228 217.453 236.42C217.618 236.611 217.814 236.762 218.03 236.865C218.245 236.967 218.476 237.019 218.709 237.017H221.324C221.709 238.971 222.372 240.835 223.285 242.534L221.481 244.637C221.149 245.026 220.962 245.552 220.962 246.1C220.962 246.649 221.149 247.175 221.481 247.563L223.821 250.291C224.154 250.679 224.605 250.896 225.076 250.896C225.546 250.896 225.997 250.679 226.331 250.291L228.135 248.173C229.587 249.237 231.182 250.01 232.854 250.459V253.507C232.854 253.779 232.9 254.048 232.989 254.298C233.079 254.549 233.21 254.776 233.375 254.968C233.541 255.159 233.737 255.31 233.952 255.413C234.168 255.515 234.399 255.567 234.632 255.565H237.939C238.172 255.567 238.403 255.515 238.619 255.413C238.834 255.31 239.03 255.159 239.196 254.968C239.361 254.776 239.492 254.549 239.581 254.298C239.671 254.048 239.717 253.779 239.717 253.507V250.459C241.389 250.01 242.984 249.237 244.436 248.173L246.24 250.291C246.574 250.679 247.025 250.896 247.495 250.896C247.966 250.896 248.417 250.679 248.75 250.291L251.09 247.563C251.422 247.175 251.609 246.649 251.609 246.1C251.609 245.552 251.422 245.026 251.09 244.637L249.286 242.534C250.2 240.838 250.859 238.972 251.234 237.017H253.849C254.082 237.011 254.311 236.951 254.524 236.842C254.737 236.732 254.93 236.574 255.09 236.377C255.25 236.18 255.376 235.948 255.459 235.694C255.542 235.44 255.581 235.17 255.574 234.899ZM237.089 242.046C235.478 242.244 233.853 241.855 232.438 240.932C231.024 240.01 229.889 238.599 229.191 236.894C228.492 235.188 228.264 233.273 228.537 231.41C228.81 229.548 229.572 227.83 230.717 226.492C231.862 225.155 233.334 224.264 234.931 223.942C236.528 223.62 238.172 223.882 239.636 224.694C241.1 225.505 242.312 226.825 243.106 228.472C243.9 230.119 244.237 232.013 244.07 233.893C243.885 235.979 243.091 237.928 241.82 239.412C240.549 240.897 238.879 241.827 237.089 242.046Z" fill="white" stroke="#2E353A" stroke-linecap="round" stroke-linejoin="round"/>
<path d="M484.203 124.389H206.918C201.424 124.389 196.969 129.582 196.969 135.987V223.179C196.969 229.584 201.424 234.777 206.918 234.777H484.203C489.697 234.777 494.151 229.584 494.151 223.179V135.987C494.151 129.582 489.697 124.389 484.203 124.389Z" fill="white" stroke="#2E353A" stroke-linecap="round" stroke-linejoin="round"/>
<path d="M484.883 153.407H216.631" stroke="#2E353A" stroke-linecap="round" stroke-linejoin="round"/>
<path d="M484.883 177.594H216.631" stroke="#2E353A" stroke-linecap="round" stroke-linejoin="round"/>
<path d="M484.883 201.781H216.631" stroke="#2E353A" stroke-linecap="round" stroke-linejoin="round"/>
<path d="M224.148 253.538C224.148 253.538 220.919 250.322 220.527 248.966C220.168 246.82 219.639 244.717 218.945 242.686C217.82 239.836 213.716 237.291 212.408 233.908C211.101 230.524 209.362 224.596 208.487 223.453C207.611 222.31 206.317 222.828 205.872 226.028C205.428 229.229 210.565 237.078 210.892 238.221C211.219 239.364 205.519 237.383 201.859 234.639C198.198 231.896 195.95 226.181 193.741 222.554C191.531 218.926 189.727 221.472 189.819 223.56C189.91 225.647 196.486 237.428 197.754 241.726C199.022 246.024 203.244 250.642 205.598 252.989C207.951 255.336 213.114 256.281 213.114 256.281L216.579 260.305L224.148 253.538Z" fill="white" stroke="#2E353A" stroke-miterlimit="10"/>
<path d="M214.278 270.195L209.611 258.354C210.529 256.809 211.709 255.5 213.078 254.509C214.448 253.518 215.977 252.866 217.572 252.593C223.337 251.312 224.108 252.593 224.108 252.593L227.128 264.785C227.128 264.785 217.258 265.715 214.278 270.195Z" fill="#08AEC5" stroke="#2E353A" stroke-linecap="round" stroke-linejoin="round"/>
<path d="M259.575 229.625C259.575 229.625 245.574 276.353 243.652 282.434C243.155 283.958 242.201 286.549 241.038 289.505C238.593 284.552 233.194 273.625 231.586 268.991C229.39 262.895 226.357 261.371 221.429 261.95C216.5 262.529 212.095 268.671 212.095 273.152C212.095 281.641 218.54 292.965 221.389 300.585C224.448 308.663 226.501 311.68 231.665 318.432C238.201 326.982 245.613 324.025 250.62 315.704C254.463 309.303 264.255 286 264.255 286C264.255 286 261.771 236.91 259.575 229.625Z" fill="#08AEC5" stroke="#2E353A" stroke-linecap="round" stroke-linejoin="round"/>
<path d="M241.025 289.43C241.025 289.43 235.612 298.498 235.103 303.299" stroke="#2E353A" stroke-linecap="round" stroke-linejoin="round"/>
<path d="M376.641 247.563C376.641 247.563 380.471 245.43 381.151 244.256C381.967 242.282 382.943 240.404 384.066 238.648C385.778 236.24 390.367 235.036 392.367 232.14C394.367 229.244 397.361 224.062 398.485 223.239C399.609 222.416 400.721 223.239 400.472 226.516C400.224 229.793 393.504 235.782 392.955 236.727C392.406 237.672 399.296 234.883 403.544 235.904C407.793 236.925 412.852 234.7 416.617 233.923C420.382 233.146 420.134 236.423 418.852 237.87C417.571 239.318 405.78 242.336 402.276 244.363C398.773 246.39 395.74 247.975 392.851 249.514C390.776 250.705 388.764 252.039 386.824 253.507L382.589 256.357L376.641 247.563Z" fill="white" stroke="#2E353A" stroke-linecap="round" stroke-linejoin="round"/>
<path d="M385.896 265.41L390.563 253.568C389.645 252.024 388.465 250.715 387.096 249.724C385.726 248.733 384.197 248.081 382.602 247.807C376.837 246.527 376.065 247.807 376.065 247.807L373.046 260C373.046 260 382.929 260.929 385.896 265.41Z" fill="#08AEC5" stroke="#2E353A" stroke-miterlimit="10"/>
<path d="M378.811 257.059C373.869 256.419 370.849 258.019 368.653 264.1C366.98 268.672 361.659 279.661 359.201 284.614C358.025 281.657 357.071 279.127 356.587 277.542C354.665 271.446 340.664 224.733 340.664 224.733C338.468 232.095 335.997 281.124 335.997 281.124C335.997 281.124 346.456 304.411 350.377 310.828C352.639 314.592 354.43 318.082 358.574 318.798C370.758 320.917 374.405 307.551 378.183 297.675C380.549 291.442 382.902 285.193 385.099 278.868C386.17 275.82 388.21 271.72 388.21 268.321C388.144 263.81 383.752 257.729 378.811 257.059Z" fill="#08AEC5" stroke="#2E353A" stroke-linecap="round" stroke-linejoin="round"/>
<path d="M359.202 284.644C359.202 284.644 364.692 293.697 365.738 298.497" stroke="#2E353A" stroke-linecap="round" stroke-linejoin="round"/>
<path d="M281.315 143.76C281.315 143.76 277.471 160.402 278.295 162.048C279.118 163.694 281.04 163.008 279.942 166.209C278.844 169.409 276.373 175.506 276.922 178.066C277.471 180.626 280.491 182.547 280.491 182.547C280.491 182.547 281.864 194.069 283.236 196.263C284.609 198.458 292.021 197.223 292.021 197.223L292.57 205.865L314.545 204.341L313.722 188.978L312.624 141.595L281.315 143.76Z" fill="white"/>
<mask id="mask0_9_5474" style="mask-type:luminance" maskUnits="userSpaceOnUse" x="276" y="141" width="39" height="65">
<path d="M281.315 143.76C281.315 143.76 277.471 160.402 278.295 162.048C279.118 163.694 281.04 163.008 279.942 166.209C278.844 169.409 276.373 175.506 276.922 178.066C277.471 180.626 280.491 182.547 280.491 182.547C280.491 182.547 281.864 194.069 283.236 196.263C284.609 198.458 292.021 197.223 292.021 197.223L292.57 205.865L314.545 204.341L313.722 188.978L312.624 141.595L281.315 143.76Z" fill="white"/>
</mask>
<g mask="url(#mask0_9_5474)">
<g style="mix-blend-mode:multiply" opacity="0.5">
<path d="M291.969 197.224L292.518 205.865L314.493 204.341L313.669 188.979L313.199 169.044C310.336 169.044 307.721 169.181 306.911 169.181C304.911 169.181 300.544 168.785 299.538 169.181C298.531 169.577 297.198 169.958 297.198 169.958L292.178 176.207C292.178 176.207 292.505 184.407 290.165 188.704C288.204 192.301 283.053 193.719 282.766 195.349C282.884 195.691 283.024 196.022 283.184 196.34C283.445 196.569 283.733 196.812 284.047 197.056C286.426 198.169 291.969 197.224 291.969 197.224Z" fill="#08AEC5"/>
</g>
</g>
<path d="M281.315 143.76C281.315 143.76 277.471 160.402 278.295 162.048C279.118 163.694 281.04 163.008 279.942 166.209C278.844 169.409 276.373 175.506 276.922 178.066C277.471 180.626 280.491 182.547 280.491 182.547C280.491 182.547 281.864 194.069 283.236 196.263C284.609 198.458 292.021 197.223 292.021 197.223L292.57 205.865L314.545 204.341L313.722 188.978L312.624 141.595L281.315 143.76Z" stroke="#2E353A" stroke-miterlimit="10"/>
<path d="M283.275 166.819C283.275 168.114 282.87 169.151 282.373 169.151C281.877 169.151 281.458 168.114 281.458 166.819C281.458 165.524 281.864 164.487 282.373 164.487C282.883 164.487 283.275 165.524 283.275 166.819Z" fill="#2E353A"/>
<path d="M307.63 130.958C306.323 131.202 295.864 130.958 287.576 132.558C279.288 134.158 276.87 134.798 277.118 138.959C277.366 143.12 276.569 144.72 279.589 146.32C280.874 147.107 282.268 147.623 283.707 147.844C283.707 147.844 282.883 152.325 282.609 155.465C282.334 158.604 287.276 162.186 287.276 162.186C287.118 164.329 287.211 166.488 287.55 168.602C288.099 170.126 289.472 170.522 290.295 169.242C291.119 167.962 291.668 161.866 292.492 164.426C293.315 166.987 296.61 186.205 298.819 188.445C301.028 190.686 310.898 189.406 313.643 188.766C316.389 188.125 321.605 174.683 324.101 166.667C326.598 158.65 325.409 144.583 321.905 138.182C318.402 131.781 311.199 130.318 307.63 130.958Z" fill="white" stroke="#2E353A" stroke-miterlimit="10"/>
<path d="M322.742 140.117C321.761 143.165 320.755 146.976 317.97 147.219C313.617 147.616 313.617 140.971 310.597 138.624C307.578 136.277 312.611 150.344 310.271 146.442C307.93 142.541 301.891 138.624 296.531 138.243C291.171 137.862 299.538 149.566 297.538 149.566C295.538 149.566 292.178 142.144 292.178 140.194C292.178 138.243 287.145 138.182 281.445 138.182C275.746 138.182 278.099 142.083 278.099 144.43C278.1 144.765 278.182 145.092 278.334 145.375C278.737 145.731 279.176 146.027 279.641 146.259C280.926 147.046 282.32 147.562 283.759 147.783C283.759 147.783 282.935 152.264 282.661 155.404C282.386 158.543 287.328 162.125 287.328 162.125C287.171 164.268 287.263 166.426 287.602 168.541C288.152 170.065 289.524 170.461 290.348 169.181C291.171 167.901 291.72 161.805 292.544 164.365C293.368 166.925 296.662 186.144 298.871 188.384C301.08 190.624 310.95 189.344 313.696 188.704C316.441 188.064 321.657 174.622 324.154 166.605C326.363 159.519 325.618 147.067 322.742 140.117Z" fill="#2E353A"/>
<path d="M287.302 204.905L281.262 217.707C281.262 217.707 296.361 212.586 304.61 212.586C310.409 212.707 316.191 213.349 321.905 214.506L318.062 202.024C318.062 202.024 297.185 199.464 287.302 204.905Z" fill="#08AEC5" stroke="#2E353A" stroke-miterlimit="10"/>
<path d="M283.458 216.106C283.458 216.106 273.576 222.203 267.771 225.388C265.091 226.943 262.342 228.332 259.535 229.549C259.535 229.549 266.399 331.432 266.399 336.872C266.399 342.313 266.124 342.633 267.771 344.234C269.418 345.834 277.942 346.565 293.041 346.245C308.14 345.925 327.03 342.313 328.455 342.313C329.564 342.221 330.639 341.825 331.593 341.157C332.547 340.49 333.353 339.57 333.945 338.473C335.592 335.592 340.808 226.988 341.083 225.693C341.357 224.397 322.964 215.131 321.042 214.491C319.121 213.851 308.179 205.24 283.458 216.106Z" fill="#08AEC5" stroke="#2E353A" stroke-miterlimit="10"/>
<path d="M316.741 297.675C315.014 299.513 313.165 301.189 311.212 302.689" stroke="#2E353A" stroke-linecap="round" stroke-linejoin="round"/>
<path d="M336.926 255.93C336.926 255.93 333.109 275.575 321.971 291.258" stroke="#2E353A" stroke-linecap="round" stroke-linejoin="round"/>
<path d="M290.165 164.41C290.528 167.391 290.751 170.393 290.832 173.402C290.832 176.908 288.818 178.859 290.165 180.428C291.511 181.998 292.505 181.206 293.511 178.477C294.592 175.245 295.039 171.772 294.819 168.312C294.518 165.614 294.178 159.716 290.165 164.41Z" fill="white" stroke="#2E353A" stroke-miterlimit="10"/>
<path d="M304.95 481.765L312.31 394.04L323.762 377.824" stroke="white" stroke-miterlimit="10"/>
</svg>
