<svg width="1440" height="261" viewBox="0 0 1440 261" fill="none" xmlns="http://www.w3.org/2000/svg">
<g style="mix-blend-mode:color-burn">
<path fill-rule="evenodd" clip-rule="evenodd" d="M0 87.2129L34.8 101.655C68.4 116.096 136.8 144.98 205.2 140.166C274.8 135.352 343.2 96.8407 411.6 111.282C480 125.724 548.4 193.119 616.8 188.305C685.2 183.491 754.8 106.469 823.2 82.399C891.6 58.3295 960 87.2129 1028.4 116.096C1096.8 144.98 1165.2 173.863 1234.8 154.608C1303.2 135.352 1371.6 67.9573 1405.2 34.2599L1440 0.562561V260.514H1405.2C1371.6 260.514 1303.2 260.514 1234.8 260.514C1165.2 260.514 1096.8 260.514 1028.4 260.514C960 260.514 891.6 260.514 823.2 260.514C754.8 260.514 685.2 260.514 616.8 260.514C548.4 260.514 480 260.514 411.6 260.514C343.2 260.514 274.8 260.514 205.2 260.514C136.8 260.514 68.4 260.514 34.8 260.514H0V87.2129Z" fill="#0492A6"/>
<path fill-rule="evenodd" clip-rule="evenodd" d="M0 87.2129L34.8 101.655C68.4 116.096 136.8 144.98 205.2 140.166C274.8 135.352 343.2 96.8407 411.6 111.282C480 125.724 548.4 193.119 616.8 188.305C685.2 183.491 754.8 106.469 823.2 82.399C891.6 58.3295 960 87.2129 1028.4 116.096C1096.8 144.98 1165.2 173.863 1234.8 154.608C1303.2 135.352 1371.6 67.9573 1405.2 34.2599L1440 0.562561V260.514H1405.2C1371.6 260.514 1303.2 260.514 1234.8 260.514C1165.2 260.514 1096.8 260.514 1028.4 260.514C960 260.514 891.6 260.514 823.2 260.514C754.8 260.514 685.2 260.514 616.8 260.514C548.4 260.514 480 260.514 411.6 260.514C343.2 260.514 274.8 260.514 205.2 260.514C136.8 260.514 68.4 260.514 34.8 260.514H0V87.2129Z" stroke="black"/>
</g>
</svg>
