<svg width="1440" height="248" viewBox="0 0 1440 248" fill="none" xmlns="http://www.w3.org/2000/svg">
<g style="mix-blend-mode:color-burn">
<path fill-rule="evenodd" clip-rule="evenodd" d="M0 82.6667L34.8 96.4445C68.4 110.222 136.8 137.778 205.2 133.185C274.8 128.593 343.2 91.8519 411.6 105.63C480 119.407 548.4 183.704 616.8 179.111C685.2 174.519 754.8 101.037 823.2 78.0741C891.6 55.1111 960 82.6667 1028.4 110.222C1096.8 137.778 1165.2 165.333 1234.8 146.963C1303.2 128.593 1371.6 64.2963 1405.2 32.1481L1440 0V248H1405.2C1371.6 248 1303.2 248 1234.8 248C1165.2 248 1096.8 248 1028.4 248C960 248 891.6 248 823.2 248C754.8 248 685.2 248 616.8 248C548.4 248 480 248 411.6 248C343.2 248 274.8 248 205.2 248C136.8 248 68.4 248 34.8 248H0V82.6667Z" fill="#0492A6"/>
<path fill-rule="evenodd" clip-rule="evenodd" d="M0 82.6667L34.8 96.4445C68.4 110.222 136.8 137.778 205.2 133.185C274.8 128.593 343.2 91.8519 411.6 105.63C480 119.407 548.4 183.704 616.8 179.111C685.2 174.519 754.8 101.037 823.2 78.0741C891.6 55.1111 960 82.6667 1028.4 110.222C1096.8 137.778 1165.2 165.333 1234.8 146.963C1303.2 128.593 1371.6 64.2963 1405.2 32.1481L1440 0V248H1405.2C1371.6 248 1303.2 248 1234.8 248C1165.2 248 1096.8 248 1028.4 248C960 248 891.6 248 823.2 248C754.8 248 685.2 248 616.8 248C548.4 248 480 248 411.6 248C343.2 248 274.8 248 205.2 248C136.8 248 68.4 248 34.8 248H0V82.6667Z" stroke="black"/>
</g>
</svg>
