<svg width="1438" height="252" viewBox="0 0 1438 252" fill="none" xmlns="http://www.w3.org/2000/svg">
<g style="mix-blend-mode:color-burn">
<path fill-rule="evenodd" clip-rule="evenodd" d="M0 144L26.3633 114C52.7267 84 106.652 24 159.378 30C213.303 36 266.03 108 319.955 114C372.682 120 426.607 60 479.333 30C532.06 0 585.985 0 638.712 0C692.637 0 745.363 0 799.288 36C852.015 72 905.94 144 958.667 138C1011.39 132 1065.32 48 1118.05 48C1171.97 48 1224.7 132 1278.62 138C1331.35 144 1385.27 72 1411.64 36L1438 0V252H1411.64C1385.27 252 1331.35 252 1278.62 252C1224.7 252 1171.97 252 1118.05 252C1065.32 252 1011.39 252 958.667 252C905.94 252 852.015 252 799.288 252C745.363 252 692.637 252 638.712 252C585.985 252 532.06 252 479.333 252C426.607 252 372.682 252 319.955 252C266.03 252 213.303 252 159.378 252C106.652 252 52.7267 252 26.3633 252H0V144Z" fill="#0099FF"/>
<path fill-rule="evenodd" clip-rule="evenodd" d="M0 144L26.3633 114C52.7267 84 106.652 24 159.378 30C213.303 36 266.03 108 319.955 114C372.682 120 426.607 60 479.333 30C532.06 0 585.985 0 638.712 0C692.637 0 745.363 0 799.288 36C852.015 72 905.94 144 958.667 138C1011.39 132 1065.32 48 1118.05 48C1171.97 48 1224.7 132 1278.62 138C1331.35 144 1385.27 72 1411.64 36L1438 0V252H1411.64C1385.27 252 1331.35 252 1278.62 252C1224.7 252 1171.97 252 1118.05 252C1065.32 252 1011.39 252 958.667 252C905.94 252 852.015 252 799.288 252C745.363 252 692.637 252 638.712 252C585.985 252 532.06 252 479.333 252C426.607 252 372.682 252 319.955 252C266.03 252 213.303 252 159.378 252C106.652 252 52.7267 252 26.3633 252H0V144Z" stroke="black"/>
</g>
</svg>
