<svg width="80" height="80" viewBox="0 0 80 80" fill="none" xmlns="http://www.w3.org/2000/svg">
<circle cx="40" cy="40" r="40" fill="white"/>
<path d="M49.2049 43.5883C48.8752 43.5883 48.553 43.4783 48.2789 43.2723C48.0048 43.0663 47.7912 42.7734 47.6651 42.4308C47.5389 42.0882 47.5059 41.7112 47.5702 41.3475C47.6345 40.9838 47.7933 40.6497 48.0264 40.3875C48.2594 40.1252 48.5564 39.9467 48.8797 39.8743C49.203 39.802 49.5381 39.8391 49.8427 39.981C50.1472 40.1229 50.4075 40.3632 50.5906 40.6716C50.7738 40.9799 50.8715 41.3424 50.8715 41.7133C50.8715 42.2106 50.6959 42.6875 50.3834 43.0391C50.0708 43.3907 49.6469 43.5883 49.2049 43.5883ZM30.7951 43.5883C30.4655 43.5883 30.1433 43.4783 29.8692 43.2723C29.5951 43.0663 29.3815 42.7734 29.2553 42.4308C29.1292 42.0882 29.0962 41.7112 29.1605 41.3475C29.2248 40.9838 29.3835 40.6497 29.6166 40.3875C29.8497 40.1252 30.1467 39.9467 30.47 39.8743C30.7933 39.802 31.1284 39.8391 31.4329 39.981C31.7375 40.1229 31.9978 40.3632 32.1809 40.6716C32.3641 40.9799 32.4618 41.3424 32.4618 41.7133C32.4618 42.2106 32.2862 42.6875 31.9737 43.0391C31.6611 43.3907 31.2372 43.5883 30.7951 43.5883ZM49.8021 32.3008L53.1313 25.8164C53.1842 25.7276 53.2204 25.6275 53.2376 25.5223C53.2548 25.4171 53.2526 25.3091 53.2312 25.2049C53.2097 25.1007 53.1695 25.0026 53.113 24.9166C53.0565 24.8306 52.9848 24.7586 52.9026 24.705C52.8203 24.6514 52.7291 24.6174 52.6347 24.6051C52.5403 24.5927 52.4446 24.6023 52.3536 24.6333C52.2626 24.6642 52.1783 24.7159 52.1057 24.785C52.0332 24.8541 51.974 24.9393 51.9319 25.0352L48.5611 31.6031C45.8686 30.2446 42.951 29.5422 40 29.5422C37.049 29.5422 34.1314 30.2446 31.4389 31.6031L28.0681 25.0352C28.026 24.9393 27.9668 24.8541 27.8943 24.785C27.8217 24.7159 27.7374 24.6642 27.6464 24.6333C27.5554 24.6023 27.4597 24.5927 27.3653 24.6051C27.2709 24.6174 27.1797 24.6514 27.0974 24.705C27.0152 24.7586 26.9435 24.8306 26.887 24.9166C26.8305 25.0026 26.7903 25.1007 26.7688 25.2049C26.7474 25.3091 26.7452 25.4171 26.7624 25.5223C26.7796 25.6275 26.8158 25.7276 26.8688 25.8164L30.1979 32.3008C24.4813 35.7984 20.5722 42.3086 20 50H60C59.4278 42.3086 55.5181 35.7984 49.8021 32.3008Z" fill="#04D900"/>
</svg>
