<svg width="80" height="80" viewBox="0 0 80 80" fill="none" xmlns="http://www.w3.org/2000/svg">
<circle cx="40" cy="40" r="40" fill="white"/>
<g clip-path="url(#clip0_19_9)">
<path d="M47.955 20.02C47.87 19.925 44.8075 20.0575 42.1425 22.95C39.4775 25.84 39.8875 29.155 39.9475 29.24C40.0075 29.325 43.7475 29.4575 46.135 26.095C48.5225 22.7325 48.04 20.1175 47.955 20.02ZM56.24 49.3525C56.12 49.1125 50.4275 46.2675 50.9575 40.7975C51.4875 35.325 55.145 33.825 55.2025 33.6625C55.26 33.5 53.71 31.6875 52.0675 30.77C50.8615 30.1231 49.5268 29.7525 48.16 29.685C47.89 29.6775 46.9525 29.4475 45.025 29.975C43.755 30.3225 40.8925 31.4475 40.105 31.4925C39.315 31.5375 36.965 30.1875 34.4375 29.83C32.82 29.5175 31.105 30.1575 29.8775 30.65C28.6525 31.14 26.3225 32.535 24.6925 36.2425C23.0625 39.9475 23.915 45.8175 24.525 47.6425C25.135 49.465 26.0875 52.4525 27.7075 54.6325C29.1475 57.0925 31.0575 58.8 31.855 59.38C32.6525 59.96 34.9025 60.345 36.4625 59.5475C37.7175 58.7775 39.9825 58.335 40.8775 58.3675C41.77 58.4 43.53 58.7525 45.3325 59.715C46.76 60.2075 48.11 60.0025 49.4625 59.4525C50.815 58.9 52.7725 56.805 55.0575 52.5575C55.925 50.5825 56.32 49.515 56.24 49.3525Z" fill="black"/>
<path d="M47.955 20.02C47.87 19.925 44.8075 20.0575 42.1425 22.95C39.4775 25.84 39.8875 29.155 39.9475 29.24C40.0075 29.325 43.7475 29.4575 46.135 26.095C48.5225 22.7325 48.04 20.1175 47.955 20.02ZM56.24 49.3525C56.12 49.1125 50.4275 46.2675 50.9575 40.7975C51.4875 35.325 55.145 33.825 55.2025 33.6625C55.26 33.5 53.71 31.6875 52.0675 30.77C50.8615 30.1231 49.5268 29.7525 48.16 29.685C47.89 29.6775 46.9525 29.4475 45.025 29.975C43.755 30.3225 40.8925 31.4475 40.105 31.4925C39.315 31.5375 36.965 30.1875 34.4375 29.83C32.82 29.5175 31.105 30.1575 29.8775 30.65C28.6525 31.14 26.3225 32.535 24.6925 36.2425C23.0625 39.9475 23.915 45.8175 24.525 47.6425C25.135 49.465 26.0875 52.4525 27.7075 54.6325C29.1475 57.0925 31.0575 58.8 31.855 59.38C32.6525 59.96 34.9025 60.345 36.4625 59.5475C37.7175 58.7775 39.9825 58.335 40.8775 58.3675C41.77 58.4 43.53 58.7525 45.3325 59.715C46.76 60.2075 48.11 60.0025 49.4625 59.4525C50.815 58.9 52.7725 56.805 55.0575 52.5575C55.925 50.5825 56.32 49.515 56.24 49.3525Z" fill="black"/>
</g>
<defs>
<clipPath id="clip0_19_9">
<rect width="40" height="40" fill="white" transform="translate(20 20)"/>
</clipPath>
</defs>
</svg>
