<svg width="80" height="80" viewBox="0 0 80 80" fill="none" xmlns="http://www.w3.org/2000/svg">
<circle cx="40" cy="40" r="40" fill="white"/>
<g clip-path="url(#clip0_19_6)">
<path d="M39.7143 29.6328C39.8036 29.6719 39.875 29.7656 39.9821 29.7656C40.0804 29.7656 40.2321 29.7344 40.2411 29.6485C40.2589 29.5391 40.0714 29.4688 39.9554 29.4219C39.8036 29.3672 39.6071 29.3438 39.4643 29.4141C39.4286 29.4297 39.3929 29.4688 39.4107 29.5C39.4375 29.6016 39.6161 29.586 39.7143 29.6328ZM37.7589 29.7656C37.8661 29.7656 37.9375 29.6719 38.0268 29.6328C38.125 29.586 38.3036 29.6016 38.3393 29.5078C38.3571 29.4766 38.3214 29.4375 38.2857 29.4219C38.1429 29.3516 37.9464 29.375 37.7946 29.4297C37.6786 29.4766 37.4911 29.5469 37.5089 29.6563C37.5179 29.7344 37.6696 29.7735 37.7589 29.7656ZM57.5 51.5469C57.1786 51.2344 57.0268 50.6406 56.8571 50.0078C56.6964 49.375 56.5089 48.6953 55.9196 48.2578C55.8036 48.1719 55.6875 48.0938 55.5625 48.0313C55.4464 47.9688 55.3214 47.9141 55.1964 47.875C56.0179 45.7422 55.6964 43.6172 54.8661 41.6953C53.8482 39.3438 52.0714 37.2891 50.7143 35.8828C49.1875 34.2031 47.7054 32.6094 47.7321 30.2578C47.7768 26.6719 48.1875 20.0078 40.9643 20C31.8214 19.9844 34.1071 28.0781 34.0089 30.5625C33.8571 32.3906 33.4375 33.8281 32 35.6172C30.3125 37.375 27.9375 40.211 26.8125 43.1719C26.2768 44.5703 26.0268 45.9922 26.2589 47.336C25.6786 47.7891 25.2411 48.4844 24.7768 48.9141C24.4018 49.25 23.8571 49.375 23.2589 49.5625C22.6607 49.75 22.0089 50.0313 21.6071 50.6953C21.4196 51 21.3571 51.3281 21.3571 51.6641C21.3571 51.9688 21.4107 52.2813 21.4643 52.586C21.5714 53.2188 21.6875 53.8125 21.5357 54.211C21.0714 55.336 21.0089 56.1172 21.3393 56.6875C21.6786 57.2578 22.3571 57.5078 23.1339 57.6485C24.6786 57.9297 26.7768 57.8594 28.4286 58.625C30.1964 59.4375 31.9911 59.7266 33.4196 59.4375C34.4554 59.2344 35.3036 58.6875 35.7321 57.8594C36.8482 57.8516 38.0804 57.4375 40.0446 57.3438C41.375 57.25 43.0446 57.7578 44.9643 57.6641C45.0179 57.8438 45.0893 58.0235 45.1875 58.1875V58.1953C45.9286 59.5 47.3125 60.0938 48.7857 59.9922C50.2679 59.8906 51.8304 59.1328 53.0982 57.8125C54.3125 56.5313 56.3125 56 57.6429 55.2969C58.3036 54.9453 58.8393 54.5078 58.8839 53.8672C58.9196 53.2266 58.4911 52.5156 57.5 51.5469ZM39.9732 26.8203C40.8482 25.086 43.0268 25.1172 43.9018 26.7891C44.4821 27.8985 44.2232 29.2031 43.5179 29.9453C43.375 29.8828 42.9911 29.7422 42.3929 29.5625C42.4911 29.4688 42.6696 29.3516 42.7411 29.2031C43.1696 28.2813 42.7232 27.0938 41.9286 27.0703C41.2768 27.0313 40.6875 27.9141 40.875 28.8672C40.5089 28.711 40.0357 28.5938 39.7143 28.5235C39.625 27.9844 39.6875 27.3828 39.9732 26.8203ZM36.3393 25.9219C37.2411 25.9219 38.1964 27.0313 38.0446 28.5391C37.7321 28.6172 37.4107 28.7344 37.1339 28.8985C37.2411 28.2031 36.8393 27.3281 36.2768 27.3672C35.5268 27.4219 35.4018 29.0235 36.1161 29.5625C36.2054 29.625 36.2857 29.5469 35.5893 29.9922C34.1964 28.8516 34.6518 25.9219 36.3393 25.9219ZM35.125 30.6641C35.6786 30.3047 36.3393 29.8828 36.3839 29.8438C36.8036 29.5 37.5893 28.7344 38.875 28.7344C39.5089 28.7344 40.2679 28.9141 41.1875 29.4297C41.75 29.75 42.1964 29.7735 43.2054 30.1563C43.9554 30.4297 44.4286 30.9141 44.1429 31.5781C43.9107 32.1328 43.1607 32.7031 42.1161 32.9922C41.125 33.2735 40.3482 34.2422 38.7054 34.1563C38.3571 34.1406 38.0804 34.0781 37.8482 33.9922C37.1339 33.7188 36.7589 33.1797 36.0625 32.8203C35.2946 32.4453 34.8839 32.0078 34.75 31.625C34.625 31.2422 34.75 30.9219 35.125 30.6641ZM35.4196 56.7578C35.1786 59.5 31.5 59.4453 28.6964 58.1641C26.0268 56.9297 22.5714 57.6563 21.8661 56.4531C21.6518 56.086 21.6518 55.461 22.0982 54.3906V54.375C22.3125 53.7813 22.1518 53.125 22.0446 52.5078C21.9375 51.8985 21.8839 51.336 22.125 50.9453C22.4375 50.4219 22.8839 50.2344 23.4464 50.0625C24.3661 49.7735 24.5 49.7969 25.1964 49.2891C25.6875 48.8438 26.0446 48.2813 26.4732 47.8828C26.9286 47.4531 27.3661 47.25 28.0536 47.3438C28.7768 47.4375 29.4018 47.875 30.0089 48.5938L31.7589 51.375C32.6071 52.9297 35.6071 55.1563 35.4196 56.7578ZM35.2946 54.7344C34.9286 54.2188 34.4375 53.6719 34.0089 53.2031C34.6429 53.2031 35.2768 53.0313 35.5 52.5078C35.7054 52.0235 35.5 51.3438 34.8393 50.5625C33.6339 49.1406 31.4196 48.0235 31.4196 48.0235C30.2143 47.3672 29.5357 46.5625 29.2232 45.6875C28.9107 44.8125 28.9554 43.8672 29.1964 42.9375C29.6607 41.1485 30.8571 39.4063 31.625 38.3125C31.8304 38.1797 31.6964 38.5625 30.8482 39.9375C30.0893 41.1953 28.6696 44.1016 30.6161 46.375C30.6696 44.7578 31.1071 43.1094 31.8482 41.5703C32.9196 39.4297 35.1786 35.7188 35.3571 32.7656C35.4554 32.8281 35.7679 33.0156 35.9107 33.086C36.3214 33.2969 36.6339 33.6094 37.0357 33.8906C38.1429 34.6719 39.5804 34.6094 40.8214 33.9844C41.375 33.711 41.8214 33.3985 42.2411 33.2813C43.125 33.0391 43.8304 32.6094 44.2321 32.1094C44.9196 34.4844 46.5268 37.9141 47.5536 39.586C48.0982 40.4766 49.1875 42.3594 49.6607 44.6328C49.9554 44.625 50.2857 44.6641 50.6339 44.7422C51.8661 41.9531 49.5893 38.9453 48.5536 38.1094C48.1339 37.75 48.1161 37.5938 48.3214 37.6016C49.4464 38.4766 50.9286 40.2344 51.4643 42.211C51.7143 43.1172 51.7589 44.0625 51.5 45C52.9643 45.5313 54.7054 46.3985 54.2411 47.7188C54.0446 47.711 53.9554 47.7188 53.8661 47.7188C54.1518 46.9297 53.5179 46.3438 51.8304 45.6797C50.0804 45.0078 48.6161 45.0078 48.4107 46.6563C47.3304 46.9844 46.7768 47.8047 46.5 48.7891C46.25 49.6641 46.1786 50.7188 46.1071 51.9063C46.0625 52.5078 45.7857 53.3125 45.5 54.1719C42.6339 55.961 38.6518 56.7422 35.2946 54.7344ZM58.2768 53.836C58.1964 55.1485 54.5982 55.3906 52.6339 57.4688C51.4554 58.6953 50.0089 59.375 48.7411 59.461C47.4732 59.5469 46.375 59.086 45.7321 57.9531C45.3125 57.086 45.5179 56.1485 45.8304 55.1172C46.1607 54.0078 46.6518 52.8672 46.7143 51.9453C46.7857 50.7578 46.8661 49.7188 47.0893 48.9219C47.3214 48.1172 47.6786 47.5781 48.3125 47.2735C48.3393 47.2578 48.375 47.25 48.4018 47.2344C48.4732 48.2656 49.0536 49.3125 50.0804 49.5391C51.2054 49.7969 52.8214 48.9531 53.5089 48.2656C54.3125 48.2422 54.9107 48.1953 55.5268 48.6641C56.4107 49.3281 56.1607 51.0313 57.0536 51.9141C58 52.8203 58.3036 53.4375 58.2768 53.836ZM35.4732 31.6172C35.6518 31.7656 35.8929 31.9688 36.1875 32.1719C36.7768 32.5781 37.5982 33 38.625 33C39.6607 33 40.6339 32.5391 41.4643 32.1563C41.9018 31.9531 42.4375 31.6094 42.7857 31.3438C43.1339 31.0781 43.3125 30.8516 43.0625 30.8281C42.8125 30.8047 42.8304 31.0313 42.5268 31.2266C42.1339 31.4766 41.6607 31.8047 41.2857 31.9922C40.625 32.3203 39.5446 32.7891 38.6161 32.7891C37.6875 32.7891 36.9464 32.4141 36.3929 32.0313C36.1161 31.836 35.8839 31.6406 35.7054 31.4922C35.5714 31.3828 35.5357 31.1328 35.3214 31.1094C35.1964 31.1016 35.1607 31.3985 35.4732 31.6172Z" fill="black"/>
</g>
<defs>
<clipPath id="clip0_19_6">
<rect width="40" height="40" fill="white" transform="translate(20 20)"/>
</clipPath>
</defs>
</svg>
