<svg width="80" height="80" viewBox="0 0 80 80" fill="none" xmlns="http://www.w3.org/2000/svg">
<circle cx="40" cy="40" r="40" fill="white"/>
<path d="M20 44.545H21.5683V40.4567C21.5683 39.65 22.0983 39.065 22.8533 39.065C23.585 39.065 24.0367 39.525 24.0367 40.2683V44.545H25.5617V40.4167C25.5617 39.6167 26.0783 39.0633 26.835 39.0633C27.6017 39.0633 28.0317 39.53 28.0317 40.3467V44.5433H29.5983V39.9633C29.5983 38.6283 28.7367 37.74 27.42 37.74C26.4567 37.74 25.6633 38.2567 25.3417 39.0817H25.3033C25.0583 38.225 24.3833 37.74 23.44 37.74C22.5317 37.74 21.8267 38.25 21.5367 39.025H21.505V37.8667H20V44.5433V44.545ZM33.0333 43.4683C32.3533 43.4683 31.9 43.1217 31.9 42.5733C31.9 42.0433 32.3333 41.7033 33.09 41.6533L34.6333 41.5583V42.07C34.6333 42.875 33.9217 43.4683 33.0333 43.4683ZM32.56 44.6517C33.4167 44.6517 34.255 44.205 34.64 43.48H34.67V44.545H36.1833V39.945C36.1833 38.605 35.105 37.7283 33.45 37.7283C31.7483 37.7283 30.6833 38.6233 30.615 39.87H32.07C32.17 39.3167 32.6433 38.9567 33.3867 38.9567C34.16 38.9567 34.6333 39.36 34.6333 40.06V40.5383L32.87 40.6383C31.2433 40.74 30.33 41.4517 30.33 42.6367C30.33 43.8383 31.27 44.6517 32.56 44.6517ZM43.0683 40.2483C42.96 38.8433 41.87 37.7283 40.1067 37.7283C38.1667 37.7283 36.9067 39.07 36.9067 41.2067C36.9067 43.3733 38.1667 44.6767 40.12 44.6767C41.795 44.6767 42.9483 43.6933 43.0733 42.2017H41.5933C41.4483 42.9567 40.9317 43.41 40.1383 43.41C39.1433 43.41 38.5017 42.605 38.5017 41.2067C38.5017 39.8333 39.1367 39.0017 40.1267 39.0017C40.9633 39.0017 41.46 39.5367 41.5867 40.2483H43.0683ZM47.9117 35.3033C45.26 35.3033 43.5967 37.1117 43.5967 40.0033C43.5967 42.895 45.26 44.6967 47.9133 44.6967C50.5567 44.6967 52.22 42.895 52.22 40.0033C52.22 37.1117 50.5583 35.3033 47.9117 35.3033ZM47.9117 36.69C49.53 36.69 50.5633 37.9733 50.5633 40.0033C50.5633 42.025 49.53 43.31 47.9133 43.31C46.2867 43.31 45.26 42.0267 45.26 40.0033C45.26 37.975 46.2867 36.69 47.9117 36.69ZM52.8817 41.9867C52.9517 43.6633 54.325 44.6967 56.415 44.6967C58.615 44.6967 60 43.6133 60 41.8867C60 40.5317 59.2183 39.77 57.3733 39.3483L56.3283 39.1083C55.2117 38.845 54.7533 38.4917 54.7533 37.8867C54.7533 37.1317 55.445 36.6267 56.4733 36.6267C57.5117 36.6267 58.2233 37.1367 58.3 37.9883H59.85C59.8117 36.3883 58.4883 35.305 56.485 35.305C54.5067 35.305 53.1017 36.3933 53.1017 38.005C53.1017 39.305 53.8967 40.11 55.5717 40.495L56.75 40.7717C57.8967 41.0433 58.3617 41.4217 58.3617 42.075C58.3617 42.8317 57.6 43.3733 56.5033 43.3733C55.395 43.3733 54.5583 42.825 54.4567 41.9867H52.8817Z" fill="black"/>
</svg>
