<svg width="151" height="152" viewBox="0 0 151 152" fill="none" xmlns="http://www.w3.org/2000/svg">
<g clip-path="url(#clip0_9_5437)">
<path d="M0.00139385 24.2293C0.00139385 20.4681 1.48297 16.8609 4.1202 14.2013C6.75743 11.5417 10.3343 10.0476 14.0639 10.0476H117.189C120.919 10.0476 124.495 11.5417 127.133 14.2013C129.77 16.8609 131.251 20.4681 131.251 24.2293V123.766C131.251 126.602 130.783 129.949 129.02 132.955H135.939C137.182 132.955 138.374 132.457 139.253 131.571C140.133 130.684 140.626 129.482 140.626 128.228V43.1382C140.626 41.8844 141.12 40.6821 141.999 39.7955C142.878 38.909 144.071 38.4109 145.314 38.4109C146.557 38.4109 147.749 38.909 148.628 39.7955C149.508 40.6821 150.001 41.8844 150.001 43.1382V128.228C150.001 131.989 148.52 135.597 145.883 138.256C143.245 140.916 139.668 142.41 135.939 142.41H14.0358C12.1904 142.41 10.3631 142.043 8.65854 141.33C6.95398 140.617 5.40559 139.572 4.10201 138.254C2.79843 136.937 1.76525 135.374 1.06161 133.653C0.357976 131.933 -0.00230433 130.089 0.00139385 128.228V24.2293ZM112.501 132.955C115.97 132.955 118.633 130.961 120.498 128.786C121.361 127.784 121.876 126.148 121.876 123.766V24.2293C121.876 22.9755 121.383 21.7732 120.503 20.8866C119.624 20.0001 118.432 19.5021 117.189 19.5021H14.0639C12.8207 19.5021 11.6284 20.0001 10.7493 20.8866C9.87025 21.7732 9.37639 22.9755 9.37639 24.2293V128.228C9.37639 130.857 11.467 132.955 14.0358 132.955H112.501Z" fill="#08AEC5"/>
<path d="M18.7514 28.9564H112.501V47.8653H18.7514V28.9564ZM18.7514 57.3198H56.2514V85.6831H18.7514V57.3198ZM18.7514 95.1376H56.2514V104.592H18.7514V95.1376ZM18.7514 114.047H56.2514V123.501H18.7514V114.047ZM65.6264 57.3198H84.3764V66.7742H65.6264V57.3198ZM93.7514 57.3198H112.501V66.7742H93.7514V57.3198ZM65.6264 76.2287H84.3764V85.6831H65.6264V76.2287ZM93.7514 76.2287H112.501V85.6831H93.7514V76.2287ZM65.6264 95.1376H84.3764V104.592H65.6264V95.1376ZM93.7514 95.1376H112.501V104.592H93.7514V95.1376ZM65.6264 114.047H84.3764V123.501H65.6264V114.047ZM93.7514 114.047H112.501V123.501H93.7514V114.047Z" fill="#08AEC5"/>
</g>
<defs>
<clipPath id="clip0_9_5437">
<rect width="150" height="151.271" fill="white" transform="translate(0.00137329 0.59314)"/>
</clipPath>
</defs>
</svg>
