<svg width="150" height="152" viewBox="0 0 150 152" fill="none" xmlns="http://www.w3.org/2000/svg">
<g clip-path="url(#clip0_9_5426)">
<path d="M46.875 76.238C46.875 78.7455 45.8873 81.1503 44.1291 82.9233C42.371 84.6964 39.9864 85.6925 37.5 85.6925C35.0136 85.6925 32.629 84.6964 30.8709 82.9233C29.1127 81.1503 28.125 78.7455 28.125 76.238C28.125 73.7305 29.1127 71.3258 30.8709 69.5527C32.629 67.7797 35.0136 66.7836 37.5 66.7836C39.9864 66.7836 42.371 67.7797 44.1291 69.5527C45.8873 71.3258 46.875 73.7305 46.875 76.238ZM84.375 76.238C84.375 78.7455 83.3873 81.1503 81.6291 82.9233C79.871 84.6964 77.4864 85.6925 75 85.6925C72.5136 85.6925 70.129 84.6964 68.3709 82.9233C66.6127 81.1503 65.625 78.7455 65.625 76.238C65.625 73.7305 66.6127 71.3258 68.3709 69.5527C70.129 67.7797 72.5136 66.7836 75 66.7836C77.4864 66.7836 79.871 67.7797 81.6291 69.5527C83.3873 71.3258 84.375 73.7305 84.375 76.238ZM112.5 85.6925C114.986 85.6925 117.371 84.6964 119.129 82.9233C120.887 81.1503 121.875 78.7455 121.875 76.238C121.875 73.7305 120.887 71.3258 119.129 69.5527C117.371 67.7797 114.986 66.7836 112.5 66.7836C110.014 66.7836 107.629 67.7797 105.871 69.5527C104.113 71.3258 103.125 73.7305 103.125 76.238C103.125 78.7455 104.113 81.1503 105.871 82.9233C107.629 84.6964 110.014 85.6925 112.5 85.6925Z" fill="#08AEC5"/>
<path d="M20.2969 150.011L20.4844 149.973C37.6406 146.541 48.1219 142.013 52.9969 139.526C60.1743 141.457 67.5717 142.429 75 142.419C116.419 142.419 150 112.789 150 76.2381C150 39.6871 116.419 10.0569 75 10.0569C33.5812 10.0569 0 39.6871 0 76.2381C0 92.8779 6.96563 108.1 18.4688 119.729C17.664 127.198 16.0158 134.551 13.5562 141.644L13.5281 141.748C12.8292 143.779 12.0663 145.788 11.2406 147.77C10.5 149.529 11.9344 151.495 13.8 151.193C15.9718 150.835 18.1377 150.441 20.2969 150.011ZM27.7969 120.627C27.9282 119.243 27.7552 117.846 27.2901 116.537C26.825 115.228 26.0793 114.039 25.1062 113.054C15.1688 102.994 9.375 90.1172 9.375 76.2381C9.375 46.0594 37.5375 19.5113 75 19.5113C112.463 19.5113 140.625 46.0594 140.625 76.2381C140.625 106.426 112.463 132.965 75 132.965C68.3916 132.974 61.8104 132.11 55.425 130.393C53.1935 129.79 50.8199 130.039 48.7594 131.093C45.1313 132.946 37.1344 136.482 24.0656 139.536C25.8888 133.363 27.138 127.033 27.7969 120.627Z" fill="#08AEC5"/>
</g>
<defs>
<clipPath id="clip0_9_5426">
<rect width="150" height="151.271" fill="white" transform="translate(0 0.602417)"/>
</clipPath>
</defs>
</svg>
