<?xml version="1.0" encoding="UTF-8"?>
<!DOCTYPE svg PUBLIC "-//W3C//DTD SVG 1.1//EN" "http://www.w3.org/Graphics/SVG/1.1/DTD/svg11.dtd">
<svg xmlns="http://www.w3.org/2000/svg" version="1.1" width="500px" height="500px" style="shape-rendering:geometricPrecision; text-rendering:geometricPrecision; image-rendering:optimizeQuality; fill-rule:evenodd; clip-rule:evenodd" xmlns:xlink="http://www.w3.org/1999/xlink">
<g><path style="opacity:1" fill="#00000000" d="M -0.5,-0.5 C 166.167,-0.5 332.833,-0.5 499.5,-0.5C 499.5,166.167 499.5,332.833 499.5,499.5C 332.833,499.5 166.167,499.5 -0.5,499.5C -0.5,332.833 -0.5,166.167 -0.5,-0.5 Z"/></g>
<g><path style="opacity:1" fill="#44fe17" d="M 154.5,147.5 C 163.13,146.451 167.796,150.118 168.5,158.5C 168.019,163.156 167.686,167.822 167.5,172.5C 171.936,201.413 169.603,229.746 160.5,257.5C 161.5,258.833 162.5,258.833 163.5,257.5C 171.467,243.038 179.633,228.705 188,214.5C 187.825,210.109 186.991,205.776 185.5,201.5C 187.748,192.068 193.415,188.901 202.5,192C 208.665,196.493 209.832,201.993 206,208.5C 202.437,211.275 199.104,214.275 196,217.5C 189.373,229.253 182.873,241.086 176.5,253C 199.962,242.606 223.295,231.606 246.5,220C 249.285,216.396 252.285,213.062 255.5,210C 266.88,209.047 271.713,214.213 270,225.5C 266.96,231.603 262.126,233.769 255.5,232C 253.723,230.196 251.556,229.363 249,229.5C 224.631,237.602 201.797,248.768 180.5,263C 209.123,255.698 238.123,254.531 267.5,259.5C 271.897,258.699 276.231,257.699 280.5,256.5C 290.625,258.149 293.792,263.816 290,273.5C 286.657,278.218 282.157,279.718 276.5,278C 273.203,275.705 270.203,273.038 267.5,270C 240.125,262.492 212.792,262.826 185.5,271C 168.377,277.37 151.377,283.703 134.5,290C 157.564,254.346 165.398,215.513 158,173.5C 155.344,170.678 152.511,168.012 149.5,165.5C 146.208,161.868 145.708,157.868 148,153.5C 150.063,151.266 152.229,149.266 154.5,147.5 Z"/></g>
<g><path style="opacity:1" fill="#f7fff4" d="M 155.5,152.5 C 160.319,152.153 163.319,154.32 164.5,159C 162.144,165.611 158.311,166.778 153,162.5C 151.11,158.58 151.943,155.246 155.5,152.5 Z"/></g>
<g><path style="opacity:1" fill="#f9fff7" d="M 194.5,196.5 C 200.787,196.954 202.787,200.121 200.5,206C 193.922,208.757 191.089,206.59 192,199.5C 193.045,198.627 193.878,197.627 194.5,196.5 Z"/></g>
<g><path style="opacity:1" fill="#80e0ff" d="M 73.5,207.5 C 73.5,251.167 73.5,294.833 73.5,338.5C 76.5,338.5 79.5,338.5 82.5,338.5C 79.3752,339.479 76.0419,339.813 72.5,339.5C 72.168,295.33 72.5013,251.33 73.5,207.5 Z"/></g>
<g><path style="opacity:1" fill="#16c2ff" d="M 73.5,207.5 C 99.8354,207.333 126.169,207.5 152.5,208C 153.86,209.938 153.527,211.604 151.5,213C 127.836,213.5 104.169,213.667 80.5,213.5C 80.5,248.5 80.5,283.5 80.5,318.5C 132.809,314.813 185.142,311.479 237.5,308.5C 237.333,297.162 237.5,285.828 238,274.5C 240.503,273.762 242.337,274.762 243.5,277.5C 244.13,294.405 243.463,311.072 241.5,327.5C 220.848,329.029 200.181,330.362 179.5,331.5C 179.176,335.555 179.509,339.555 180.5,343.5C 183.503,344.085 186.503,344.752 189.5,345.5C 188.975,346.192 188.308,346.692 187.5,347C 169.113,348.578 150.779,349.411 132.5,349.5C 132.709,348.914 133.043,348.414 133.5,348C 136.793,347.174 140.126,346.674 143.5,346.5C 143.5,342.5 143.5,338.5 143.5,334.5C 123.179,335.984 102.846,337.318 82.5,338.5C 79.5,338.5 76.5,338.5 73.5,338.5C 73.5,294.833 73.5,251.167 73.5,207.5 Z"/></g>
<g><path style="opacity:1" fill="#f7fff5" d="M 256.5,216.5 C 264.244,216.048 266.577,219.215 263.5,226C 260.281,228.045 257.448,227.545 255,224.5C 254.282,221.593 254.782,218.926 256.5,216.5 Z"/></g>
<g><path style="opacity:1" fill="#3afe00" d="M 320.5,267.5 C 323.962,268.482 327.629,268.815 331.5,268.5C 331.5,270.5 331.5,272.5 331.5,274.5C 325.5,274.5 319.5,274.5 313.5,274.5C 313.5,263.5 313.5,252.5 313.5,241.5C 315.833,241.5 318.167,241.5 320.5,241.5C 320.5,250.167 320.5,258.833 320.5,267.5 Z"/></g>
<g><path style="opacity:1" fill="#48fe1b" d="M 348.5,240.5 C 351.187,240.336 353.854,240.503 356.5,241C 362.205,241.488 363.538,243.988 360.5,248.5C 356.92,248.742 353.253,248.909 349.5,249C 341.391,253.317 340.391,258.983 346.5,266C 351.319,267.279 356.152,267.779 361,267.5C 363.446,272.093 361.946,274.593 356.5,275C 340.773,275.607 333.606,268.107 335,252.5C 337.833,246.493 342.333,242.493 348.5,240.5 Z"/></g>
<g><path style="opacity:1" fill="#47fe1b" d="M 365.5,241.5 C 371.176,241.334 376.843,241.501 382.5,242C 387.953,244.404 390.119,248.571 389,254.5C 385.942,260.948 380.775,263.615 373.5,262.5C 373.5,266.5 373.5,270.5 373.5,274.5C 370.833,274.5 368.167,274.5 365.5,274.5C 365.5,263.5 365.5,252.5 365.5,241.5 Z"/></g>
<g><path style="opacity:1" fill="#f7fff4" d="M 373.5,247.5 C 377.377,247.054 380.044,248.554 381.5,252C 379.911,255.297 377.245,256.797 373.5,256.5C 373.5,253.5 373.5,250.5 373.5,247.5 Z"/></g>
<g><path style="opacity:1" fill="#f8fff6" d="M 278.5,261.5 C 286.957,262.437 288.624,266.27 283.5,273C 277.212,274.378 274.379,271.878 275,265.5C 275.69,263.65 276.856,262.316 278.5,261.5 Z"/></g>
<g><path style="opacity:1" fill="#87fe64" d="M 320.5,267.5 C 324.5,267.5 328.5,267.5 332.5,267.5C 332.802,270.059 332.468,272.393 331.5,274.5C 331.5,272.5 331.5,270.5 331.5,268.5C 327.629,268.815 323.962,268.482 320.5,267.5 Z"/></g>
<g><path style="opacity:1" fill="#50fe27" d="M 222.5,269.5 C 229.568,269.261 232.734,272.595 232,279.5C 227.333,286.167 222.667,286.167 218,279.5C 217.333,277.833 217.333,276.167 218,274.5C 219.366,272.638 220.866,270.972 222.5,269.5 Z"/></g>
<g><path style="opacity:1" fill="#89e2ff" d="M 243.5,277.5 C 244.497,293.992 244.83,310.658 244.5,327.5C 243.5,327.5 242.5,327.5 241.5,327.5C 243.463,311.072 244.13,294.405 243.5,277.5 Z"/></g>
</svg>
