<?xml version="1.0" encoding="UTF-8"?>
<!DOCTYPE svg PUBLIC "-//W3C//DTD SVG 1.1//EN" "http://www.w3.org/Graphics/SVG/1.1/DTD/svg11.dtd">
<svg xmlns="http://www.w3.org/2000/svg" version="1.1" width="500px" height="500px" style="shape-rendering:geometricPrecision; text-rendering:geometricPrecision; image-rendering:optimizeQuality; fill-rule:evenodd; clip-rule:evenodd" xmlns:xlink="http://www.w3.org/1999/xlink">
<g><path style="opacity:1" fill="#00000000" d="M -0.5,-0.5 C 166.167,-0.5 332.833,-0.5 499.5,-0.5C 499.5,166.167 499.5,332.833 499.5,499.5C 332.833,499.5 166.167,499.5 -0.5,499.5C -0.5,332.833 -0.5,166.167 -0.5,-0.5 Z"/></g>
<g><path style="opacity:1" fill="#43fe15" d="M 224.5,92.5 C 235.336,90.8595 241.336,95.3595 242.5,106C 241.833,111.667 241.167,117.333 240.5,123C 246.677,158.566 244.01,193.399 232.5,227.5C 233.242,228.287 234.075,228.953 235,229.5C 245.667,210.833 256.333,192.167 267,173.5C 265.897,168.58 264.73,163.58 263.5,158.5C 265.546,148.644 271.546,144.477 281.5,146C 294.094,153.603 294.761,162.269 283.5,172C 281.667,173.167 279.833,174.333 278,175.5C 268.552,191.417 260.052,207.417 252.5,223.5C 281.985,208.674 311.485,194.007 341,179.5C 345.742,168.038 353.242,165.704 363.5,172.5C 371.501,182.918 369.501,191.085 357.5,197C 355.5,197.667 353.5,197.667 351.5,197C 348.654,194.827 345.488,193.327 342,192.5C 312.17,202.499 284.337,216.332 258.5,234C 271.333,231.168 284.333,228.835 297.5,227C 319.831,225.511 341.998,226.677 364,230.5C 368.015,229.94 371.848,228.773 375.5,227C 388.161,224.673 394.328,229.839 394,242.5C 389.118,254.705 381.285,257.205 370.5,250C 365.595,242.571 358.595,238.904 349.5,239C 320.793,234.518 292.46,236.185 264.5,244C 242.889,251.643 221.555,259.643 200.5,268C 230.03,222.856 239.03,174.023 227.5,121.5C 212.84,112.931 211.84,103.264 224.5,92.5 Z"/></g>
<g><path style="opacity:1" fill="#f9fff7" d="M 226.5,98.5 C 233.88,98.0502 237.38,101.384 237,108.5C 234.565,113.224 230.731,114.724 225.5,113C 219.99,107.73 220.323,102.897 226.5,98.5 Z"/></g>
<g><path style="opacity:1" fill="#fcfffb" d="M 273.5,153.5 C 280.827,152.329 283.994,155.329 283,162.5C 279,167.833 275,167.833 271,162.5C 269.927,158.9 270.76,155.9 273.5,153.5 Z"/></g>
<g><path style="opacity:1" fill="#93e4ff" d="M 222.5,166.5 C 190.167,166.5 157.833,166.5 125.5,166.5C 125.5,220.5 125.5,274.5 125.5,328.5C 124.501,274.336 124.168,220.003 124.5,165.5C 157.338,165.168 190.004,165.502 222.5,166.5 Z"/></g>
<g><path style="opacity:1" fill="#12c2ff" d="M 222.5,166.5 C 224.167,169.308 223.5,171.475 220.5,173C 191.502,173.5 162.502,173.667 133.5,173.5C 133.5,216.5 133.5,259.5 133.5,302.5C 198.166,298.5 262.833,294.5 327.5,290.5C 327.218,276.131 327.551,261.797 328.5,247.5C 331.263,247.744 333.429,249.077 335,251.5C 335.5,272.164 335.667,292.831 335.5,313.5C 308.8,315.237 282.133,317.237 255.5,319.5C 255.5,324.5 255.5,329.5 255.5,334.5C 259.645,334.33 263.645,334.997 267.5,336.5C 258.294,338.645 248.961,339.812 239.5,340C 225.489,341.052 211.489,341.219 197.5,340.5C 201.834,338.232 206.5,337.232 211.5,337.5C 211.5,332.5 211.5,327.5 211.5,322.5C 182.815,324.199 154.148,326.199 125.5,328.5C 125.5,274.5 125.5,220.5 125.5,166.5C 157.833,166.5 190.167,166.5 222.5,166.5 Z"/></g>
<g><path style="opacity:1" fill="#f9fff7" d="M 352.5,176.5 C 359.193,176.685 362.026,180.019 361,186.5C 357.294,191.268 353.294,191.601 349,187.5C 347.663,182.872 348.83,179.205 352.5,176.5 Z"/></g>
<g><path style="opacity:1" fill="#fbfff9" d="M 378.5,232.5 C 385.685,232.848 388.519,236.515 387,243.5C 384.839,247.124 381.672,248.291 377.5,247C 373.788,244.487 372.622,240.987 374,236.5C 375.397,234.93 376.897,233.596 378.5,232.5 Z"/></g>
<g><path style="opacity:1" fill="#45fe17" d="M 309.5,242.5 C 318.015,242.844 321.515,247.177 320,255.5C 317.459,260.069 313.625,261.569 308.5,260C 303.845,257.103 302.345,252.937 304,247.5C 305.73,245.598 307.563,243.931 309.5,242.5 Z"/></g>
<g><path style="opacity:1" fill="#47fe1a" d="M 245.5,367.5 C 249.514,367.334 253.514,367.501 257.5,368C 259.651,368.265 261.318,369.265 262.5,371C 261.213,373.071 260.047,375.238 259,377.5C 246.952,372.681 241.285,376.681 242,389.5C 246.648,395.635 252.481,397.135 259.5,394C 261.455,396.168 262.121,398.502 261.5,401C 249.939,405.812 240.772,402.979 234,392.5C 230.353,380.666 234.186,372.333 245.5,367.5 Z"/></g>
<g><path style="opacity:1" fill="#3cfe04" d="M 210.5,368.5 C 212.833,368.5 215.167,368.5 217.5,368.5C 217.173,377.682 217.507,386.682 218.5,395.5C 222.5,395.5 226.5,395.5 230.5,395.5C 230.5,397.833 230.5,400.167 230.5,402.5C 223.833,402.5 217.167,402.5 210.5,402.5C 210.5,391.167 210.5,379.833 210.5,368.5 Z"/></g>
<g><path style="opacity:1" fill="#76fe4e" d="M 210.5,368.5 C 212.948,367.527 215.615,367.194 218.5,367.5C 218.5,376.833 218.5,386.167 218.5,395.5C 217.507,386.682 217.173,377.682 217.5,368.5C 215.167,368.5 212.833,368.5 210.5,368.5 Z"/></g>
<g><path style="opacity:1" fill="#45fe16" d="M 279.5,389.5 C 277.5,389.5 275.5,389.5 273.5,389.5C 273.5,393.833 273.5,398.167 273.5,402.5C 270.833,402.5 268.167,402.5 265.5,402.5C 265.5,390.833 265.5,379.167 265.5,367.5C 270.844,367.334 276.177,367.501 281.5,368C 289.762,370.761 292.262,376.261 289,384.5C 286.715,387.892 283.548,389.559 279.5,389.5 Z"/></g>
<g><path style="opacity:1" fill="#f6fff4" d="M 273.5,374.5 C 279.981,373.474 282.314,375.974 280.5,382C 278.323,383.202 275.989,383.702 273.5,383.5C 273.5,380.5 273.5,377.5 273.5,374.5 Z"/></g>
<g><path style="opacity:1" fill="#d9ffce" d="M 279.5,389.5 C 278.081,390.451 276.415,390.784 274.5,390.5C 274.817,394.702 274.483,398.702 273.5,402.5C 273.5,398.167 273.5,393.833 273.5,389.5C 275.5,389.5 277.5,389.5 279.5,389.5 Z"/></g>
</svg>
