<?xml version="1.0" encoding="UTF-8"?>
<svg xmlns="http://www.w3.org/2000/svg" xmlns:xlink="http://www.w3.org/1999/xlink" width="16px" height="11px" viewBox="0 0 22 11" version="1.1">
<defs>
<clipPath id="clip1">
  <path d="M 0 0 L 11 0 L 11 6.417969 L 0 6.417969 Z M 0 0 "/>
</clipPath>
<clipPath id="clip2">
  <path d="M 0 0 L 11 0 L 11 6 L 0 6 Z M 0 0 "/>
</clipPath>
<clipPath id="clip3">
  <path d="M 0 0 L 0 2.75 L 10.082031 2.75 L 10.082031 5.5 L 9.625 5.5 Z M 9.625 0 L 4.8125 0 L 4.8125 5.957031 L 0 5.957031 L 0 5.5 Z M 9.625 0 "/>
</clipPath>
</defs>
<g id="surface1">
<rect x="0" y="0" width="22" height="11" style="fill:rgb(0.392157%,12.941176%,41.176471%);fill-opacity:1;stroke:none;"/>
<g clip-path="url(#clip1)" clip-rule="nonzero">
<path style="fill-rule:nonzero;fill:rgb(0.392157%,12.941176%,41.176471%);fill-opacity:1;stroke-width:2.4;stroke-linecap:butt;stroke-linejoin:miter;stroke:rgb(100%,100%,100%);stroke-opacity:1;stroke-miterlimit:4;" d="M 0 0 L 27.997159 15.997159 M 21 0 L 0 12 " transform="matrix(0.458333,0,0,0.458333,0,0)"/>
</g>
<g clip-path="url(#clip2)" clip-rule="nonzero">
<g clip-path="url(#clip3)" clip-rule="nonzero">
<path style="fill-rule:nonzero;fill:rgb(0.392157%,12.941176%,41.176471%);fill-opacity:1;stroke-width:1.6;stroke-linecap:butt;stroke-linejoin:miter;stroke:rgb(78.431373%,6.27451%,18.039216%);stroke-opacity:1;stroke-miterlimit:4;" d="M 0 0 L 27.997159 15.997159 M 21 0 L 0 12 " transform="matrix(0.458333,0,0,0.458333,0,0)"/>
</g>
</g>
<path style="fill-rule:nonzero;fill:rgb(0.392157%,12.941176%,41.176471%);fill-opacity:1;stroke-width:4;stroke-linecap:butt;stroke-linejoin:miter;stroke:rgb(100%,100%,100%);stroke-opacity:1;stroke-miterlimit:4;" d="M 10.5 0 L 10.5 14.002841 M 0 6 L 24 6 " transform="matrix(0.458333,0,0,0.458333,0,0)"/>
<path style=" stroke:none;fill-rule:nonzero;fill:rgb(100%,100%,100%);fill-opacity:1;" d="M 22 0 L 22 1.832031 L 10.082031 1.832031 L 9.625 1.375 L 9.625 0 Z M 22 4.125 L 22 5.957031 L 9.625 5.957031 L 9.625 4.125 Z M 22 8.25 L 22 11 L 0 11 L 0 8.25 Z M 22 8.25 "/>
<path style=" stroke:none;fill-rule:nonzero;fill:rgb(78.431373%,6.27451%,18.039216%);fill-opacity:1;" d="M 22 1.375 L 22 3.300781 L 0 3.300781 L 0 2.199219 L 9.625 2.199219 L 9.625 1.375 Z M 22 5.5 L 22 6.875 L 0 6.875 L 0 5.5 Z M 22 9.625 L 22 11 L 0 11 L 0 9.625 Z M 4.261719 0 L 5.363281 0 L 5.363281 5.957031 L 4.261719 5.957031 Z M 4.261719 0 "/>
<path style=" stroke:none;fill-rule:nonzero;fill:rgb(0.392157%,12.941176%,41.176471%);fill-opacity:1;" d="M 22 2.75 L 22 3.894531 L 9.625 3.894531 L 9.625 2.75 Z M 22 2.75 "/>
</g>
</svg>
