<svg width="150" height="150" viewBox="0 0 150 150" fill="none" xmlns="http://www.w3.org/2000/svg">
<g clip-path="url(#clip0_9_5400)">
<path d="M75 18.75C76.2432 18.75 77.4355 19.2439 78.3146 20.1229C79.1936 21.002 79.6875 22.1943 79.6875 23.4375V37.5C79.6875 38.7432 79.1936 39.9355 78.3146 40.8146C77.4355 41.6936 76.2432 42.1875 75 42.1875C73.7568 42.1875 72.5645 41.6936 71.6854 40.8146C70.8064 39.9355 70.3125 38.7432 70.3125 37.5V23.4375C70.3125 22.1943 70.8064 21.002 71.6854 20.1229C72.5645 19.2439 73.7568 18.75 75 18.75ZM34.9875 34.9875C35.8665 34.1087 37.0586 33.6151 38.3016 33.6151C39.5445 33.6151 40.7366 34.1087 41.6156 34.9875L50.1938 43.5562C51.0739 44.4364 51.5684 45.6302 51.5684 46.875C51.5684 48.1198 51.0739 49.3136 50.1938 50.1937C49.3136 51.0739 48.1198 51.5684 46.875 51.5684C45.6302 51.5684 44.4364 51.0739 43.5562 50.1937L34.9875 41.6156C34.1087 40.7366 33.6151 39.5445 33.6151 38.3016C33.6151 37.0586 34.1087 35.8665 34.9875 34.9875ZM18.75 75C18.75 73.7568 19.2439 72.5645 20.1229 71.6854C21.002 70.8063 22.1943 70.3125 23.4375 70.3125H38.3062C39.5495 70.3125 40.7417 70.8063 41.6208 71.6854C42.4999 72.5645 42.9937 73.7568 42.9937 75C42.9937 76.2432 42.4999 77.4355 41.6208 78.3145C40.7417 79.1936 39.5495 79.6875 38.3062 79.6875H23.4375C22.1943 79.6875 21.002 79.1936 20.1229 78.3145C19.2439 77.4355 18.75 76.2432 18.75 75ZM107.812 75C107.812 73.7568 108.306 72.5645 109.185 71.6854C110.065 70.8063 111.257 70.3125 112.5 70.3125H126.562C127.806 70.3125 128.998 70.8063 129.877 71.6854C130.756 72.5645 131.25 73.7568 131.25 75C131.25 76.2432 130.756 77.4355 129.877 78.3145C128.998 79.1936 127.806 79.6875 126.562 79.6875H112.5C111.257 79.6875 110.065 79.1936 109.185 78.3145C108.306 77.4355 107.812 76.2432 107.812 75ZM114.881 35.1937C114.232 34.5477 113.363 34.1697 112.448 34.1349C111.532 34.1002 110.637 34.4113 109.941 35.0062L70.7531 68.5312C69.8505 69.304 69.1193 70.2568 68.6062 71.3286C68.0932 72.4004 67.8098 73.5675 67.774 74.7552C67.7383 75.9429 67.951 77.125 68.3986 78.2257C68.8463 79.3264 69.5189 80.3214 70.3734 81.1471C71.2279 81.9727 72.2455 82.6108 73.3609 83.0203C74.4763 83.4299 75.665 83.6019 76.8507 83.5254C78.0365 83.4489 79.1932 83.1255 80.2468 82.576C81.3003 82.0265 82.2274 81.263 82.9688 80.3344L115.163 40.05C115.723 39.3489 116.005 38.4659 115.954 37.5699C115.904 36.674 115.525 35.828 114.891 35.1937H114.881Z" fill="#08AEC5"/>
<path fill-rule="evenodd" clip-rule="evenodd" d="M62.475 148.959C52.7619 147.315 43.4679 143.773 35.1236 138.536C26.7793 133.3 19.5481 126.471 13.843 118.439C2.32094 102.22 -2.28589 82.0869 1.03594 62.4704C4.35778 42.8539 15.3362 25.3604 31.556 13.8383C47.7759 2.31628 67.9085 -2.29056 87.525 1.03128C107.143 4.35311 124.637 15.332 136.16 31.5528C147.683 47.7735 152.291 67.9073 148.969 87.5251C145.647 107.143 134.668 124.637 118.447 136.16C102.227 147.683 82.0927 152.291 62.475 148.969V148.959ZM18.7406 108.806C35.8377 98.9136 55.2472 93.7192 75 93.7501C95.4938 93.7501 114.713 99.2345 131.259 108.806C137.239 98.8486 140.469 87.482 140.62 75.8676C140.77 64.2531 137.834 52.8069 132.113 42.698C126.393 32.5891 118.091 24.1797 108.057 18.3287C98.0228 12.4778 86.6154 9.39484 75 9.39484C63.3846 9.39484 51.9773 12.4778 41.9431 18.3287C31.9089 24.1797 23.6075 32.5891 17.8866 42.698C12.1658 52.8069 9.23044 64.2531 9.38048 75.8676C9.53052 87.482 12.7605 98.8486 18.7406 108.806Z" fill="#08AEC5"/>
</g>
<defs>
<clipPath id="clip0_9_5400">
<rect width="150" height="150" fill="white"/>
</clipPath>
</defs>
</svg>
