<svg width="150" height="150" viewBox="0 0 150 150" fill="none" xmlns="http://www.w3.org/2000/svg">
<g clip-path="url(#clip0_9_5406)">
<path d="M111 22.5H9C6.61305 22.5 4.32387 23.4482 2.63604 25.136C0.948212 26.8239 0 29.1131 0 31.5L0 141C0 143.387 0.948212 145.676 2.63604 147.364C4.32387 149.052 6.61305 150 9 150H111C113.387 150 115.676 149.052 117.364 147.364C119.052 145.676 120 143.387 120 141V31.5C120 29.1131 119.052 26.8239 117.364 25.136C115.676 23.4482 113.387 22.5 111 22.5Z" fill="#35495E"/>
<path opacity="0.2" d="M114 22.5H81C76.8579 22.5 73.5 25.8579 73.5 30V129C73.5 133.142 76.8579 136.5 81 136.5H114C118.142 136.5 121.5 133.142 121.5 129V30C121.5 25.8579 118.142 22.5 114 22.5Z" fill="black"/>
<path d="M114 139.5C114 140.694 113.526 141.838 112.682 142.682C111.838 143.526 110.693 144 109.5 144H10.5C9.30653 144 8.16193 143.526 7.31802 142.682C6.47411 141.838 6 140.694 6 139.5V48H114V139.5Z" fill="white"/>
<path d="M13.5 40.5C15.9853 40.5 18 38.4853 18 36C18 33.5147 15.9853 31.5 13.5 31.5C11.0147 31.5 9 33.5147 9 36C9 38.4853 11.0147 40.5 13.5 40.5Z" fill="#D15527"/>
<path d="M25.5 40.5C27.9853 40.5 30 38.4853 30 36C30 33.5147 27.9853 31.5 25.5 31.5C23.0147 31.5 21 33.5147 21 36C21 38.4853 23.0147 40.5 25.5 40.5Z" fill="#F19B2D"/>
<path d="M37.5 40.5C39.9853 40.5 42 38.4853 42 36C42 33.5147 39.9853 31.5 37.5 31.5C35.0147 31.5 33 33.5147 33 36C33 38.4853 35.0147 40.5 37.5 40.5Z" fill="#53BB72"/>
<path fill-rule="evenodd" clip-rule="evenodd" d="M12 54H108V138H12V54Z" fill="#08AEC5"/>
<path fill-rule="evenodd" clip-rule="evenodd" d="M51 54H108V138H51V54Z" fill="#08AEC5"/>
<path fill-rule="evenodd" clip-rule="evenodd" d="M141 0H87C84.6131 0 82.3239 0.948212 80.636 2.63604C78.9482 4.32387 78 6.61306 78 9.00001V123.002C78.0008 125.388 78.9494 127.676 80.6371 129.364C82.3248 131.051 84.6136 131.999 87 131.999H141C143.386 131.999 145.675 131.051 147.363 129.364C149.051 127.676 149.999 125.388 150 123.002V9.00001C150 6.61306 149.052 4.32387 147.364 2.63604C145.676 0.948212 143.387 0 141 0ZM144 111H84V21H144V111Z" fill="#35495E"/>
<path fill-rule="evenodd" clip-rule="evenodd" d="M84 21H144V111H84V21Z" fill="white"/>
<path fill-rule="evenodd" clip-rule="evenodd" d="M88.5 25.5H139.5V106.5H88.5V25.5Z" fill="#08AEC5"/>
<path fill-rule="evenodd" clip-rule="evenodd" d="M88.5 66.0001H139.5V106.5H88.5V66.0001Z" fill="#08AEC5"/>
<path fill-rule="evenodd" clip-rule="evenodd" d="M104.25 9H122.25C122.847 9 123.419 9.23705 123.841 9.65901C124.263 10.081 124.5 10.6533 124.5 11.25C124.5 11.8467 124.263 12.419 123.841 12.841C123.419 13.2629 122.847 13.5 122.25 13.5H104.25C103.653 13.5 103.081 13.2629 102.659 12.841C102.237 12.419 102 11.8467 102 11.25C102 10.6533 102.237 10.081 102.659 9.65901C103.081 9.23705 103.653 9 104.25 9ZM114 117.001C115.193 117.001 116.337 117.475 117.181 118.319C118.025 119.163 118.499 120.307 118.499 121.5C118.499 122.693 118.025 123.837 117.181 124.681C116.337 125.525 115.193 125.998 114 125.998C113.399 126.014 112.802 125.909 112.243 125.69C111.683 125.471 111.173 125.142 110.743 124.723C110.313 124.303 109.971 123.802 109.738 123.249C109.504 122.695 109.384 122.101 109.384 121.5C109.384 120.899 109.504 120.305 109.738 119.751C109.971 119.198 110.313 118.696 110.743 118.277C111.173 117.858 111.683 117.529 112.243 117.31C112.802 117.091 113.399 116.986 114 117.001Z" fill="#2C3D4F"/>
</g>
<defs>
<clipPath id="clip0_9_5406">
<rect width="150" height="150" fill="white"/>
</clipPath>
</defs>
</svg>
