<svg width="150" height="150" viewBox="0 0 150 150" fill="none" xmlns="http://www.w3.org/2000/svg">
<path d="M75 12.5C40.5375 12.5 12.5 40.5375 12.5 75V100.894C12.5 107.294 18.1062 112.5 25 112.5H31.25C32.9076 112.5 34.4973 111.841 35.6694 110.669C36.8415 109.497 37.5 107.908 37.5 106.25V74.1062C37.5 72.4486 36.8415 70.8589 35.6694 69.6868C34.4973 68.5147 32.9076 67.8562 31.25 67.8562H25.575C29.05 43.6687 49.8625 25 75 25C100.137 25 120.95 43.6687 124.425 67.8562H118.75C117.092 67.8562 115.503 68.5147 114.331 69.6868C113.158 70.8589 112.5 72.4486 112.5 74.1062V112.5C112.5 119.394 106.894 125 100 125H87.5V118.75H62.5V137.5H100C113.787 137.5 125 126.287 125 112.5C131.894 112.5 137.5 107.294 137.5 100.894V75C137.5 40.5375 109.463 12.5 75 12.5Z" fill="#08AEC5"/>
</svg>
